<svg width="501" height="485" viewBox="0 0 501 485" fill="none" xmlns="http://www.w3.org/2000/svg">
<g filter="url(#filter0_dddddd_6412_6494)">
<mask id="path-1-outside-1_6412_6494" maskUnits="userSpaceOnUse" x="80" y="0" width="341" height="305" fill="black">
<rect fill="white" x="80" width="341" height="305"/>
<path d="M80 20C80 8.95429 88.9543 0 100 0H400C411.046 0 420 8.9543 420 20V284.168C420 295.213 411.046 304.168 400 304.168H100C88.9543 304.168 80 295.213 80 284.168V20Z"/>
</mask>
<path d="M80 20C80 8.95429 88.9543 0 100 0H400C411.046 0 420 8.9543 420 20V284.168C420 295.213 411.046 304.168 400 304.168H100C88.9543 304.168 80 295.213 80 284.168V20Z" fill="white"/>
<path d="M80 0H420H80ZM420 304.168H80H420ZM80 304.168V0V304.168ZM400 0C411.598 0 421 9.40202 421 21V283.168C421 294.766 411.598 304.168 400 304.168C410.493 304.168 419 295.213 419 284.168V20C419 8.9543 410.493 0 400 0Z" fill="#E8E8E8" mask="url(#path-1-outside-1_6412_6494)"/>
</g>
<g filter="url(#filter1_dddddd_6412_6494)">
<rect x="187.204" y="13.2036" width="131.593" height="24.0659" rx="12.0329" fill="white"/>
<rect x="187.204" y="13.2036" width="131.593" height="24.0659" rx="12.0329" stroke="#D2D2D2" stroke-width="0.407186"/>
<path d="M195.574 25.2463C195.574 24.5663 195.727 23.9563 196.034 23.4163C196.34 22.8697 196.757 22.443 197.284 22.1363C197.817 21.8297 198.407 21.6763 199.054 21.6763C199.814 21.6763 200.477 21.8597 201.044 22.2263C201.61 22.593 202.024 23.113 202.284 23.7863H201.194C201 23.3663 200.72 23.043 200.354 22.8163C199.994 22.5897 199.56 22.4763 199.054 22.4763C198.567 22.4763 198.13 22.5897 197.744 22.8163C197.357 23.043 197.054 23.3663 196.834 23.7863C196.614 24.1997 196.504 24.6863 196.504 25.2463C196.504 25.7997 196.614 26.2863 196.834 26.7063C197.054 27.1197 197.357 27.4397 197.744 27.6663C198.13 27.893 198.567 28.0063 199.054 28.0063C199.56 28.0063 199.994 27.8963 200.354 27.6763C200.72 27.4497 201 27.1263 201.194 26.7063H202.284C202.024 27.373 201.61 27.8897 201.044 28.2563C200.477 28.6163 199.814 28.7963 199.054 28.7963C198.407 28.7963 197.817 28.6463 197.284 28.3463C196.757 28.0397 196.34 27.6163 196.034 27.0763C195.727 26.5363 195.574 25.9263 195.574 25.2463ZM204.548 24.1463C204.708 23.833 204.935 23.5897 205.228 23.4163C205.528 23.243 205.892 23.1563 206.318 23.1563V24.0963H206.078C205.058 24.0963 204.548 24.6497 204.548 25.7563V28.7363H203.638V23.2563H204.548V24.1463ZM212.369 25.7863C212.369 25.9597 212.359 26.143 212.339 26.3363H207.959C207.992 26.8763 208.175 27.2997 208.509 27.6063C208.849 27.9063 209.259 28.0563 209.739 28.0563C210.132 28.0563 210.459 27.9663 210.719 27.7863C210.985 27.5997 211.172 27.353 211.279 27.0463H212.259C212.112 27.573 211.819 28.003 211.379 28.3363C210.939 28.663 210.392 28.8263 209.739 28.8263C209.219 28.8263 208.752 28.7097 208.339 28.4763C207.932 28.243 207.612 27.913 207.379 27.4863C207.145 27.053 207.029 26.553 207.029 25.9863C207.029 25.4197 207.142 24.923 207.369 24.4963C207.595 24.0697 207.912 23.743 208.319 23.5163C208.732 23.283 209.205 23.1663 209.739 23.1663C210.259 23.1663 210.719 23.2797 211.119 23.5063C211.519 23.733 211.825 24.0463 212.039 24.4463C212.259 24.8397 212.369 25.2863 212.369 25.7863ZM211.429 25.5963C211.429 25.2497 211.352 24.953 211.199 24.7063C211.045 24.453 210.835 24.263 210.569 24.1363C210.309 24.003 210.019 23.9363 209.699 23.9363C209.239 23.9363 208.845 24.083 208.519 24.3763C208.199 24.6697 208.015 25.0763 207.969 25.5963H211.429ZM213.23 25.9763C213.23 25.4163 213.343 24.9263 213.57 24.5063C213.797 24.0797 214.107 23.7497 214.5 23.5163C214.9 23.283 215.343 23.1663 215.83 23.1663C216.31 23.1663 216.727 23.2697 217.08 23.4763C217.433 23.683 217.697 23.943 217.87 24.2563V23.2563H218.79V28.7363H217.87V27.7163C217.69 28.0363 217.42 28.303 217.06 28.5163C216.707 28.723 216.293 28.8263 215.82 28.8263C215.333 28.8263 214.893 28.7063 214.5 28.4663C214.107 28.2263 213.797 27.8897 213.57 27.4563C213.343 27.023 213.23 26.5297 213.23 25.9763ZM217.87 25.9863C217.87 25.573 217.787 25.213 217.62 24.9063C217.453 24.5997 217.227 24.3663 216.94 24.2063C216.66 24.0397 216.35 23.9563 216.01 23.9563C215.67 23.9563 215.36 24.0363 215.08 24.1963C214.8 24.3563 214.577 24.5897 214.41 24.8963C214.243 25.203 214.16 25.563 214.16 25.9763C214.16 26.3963 214.243 26.763 214.41 27.0763C214.577 27.383 214.8 27.6197 215.08 27.7863C215.36 27.9463 215.67 28.0263 216.01 28.0263C216.35 28.0263 216.66 27.9463 216.94 27.7863C217.227 27.6197 217.453 27.383 217.62 27.0763C217.787 26.763 217.87 26.3997 217.87 25.9863ZM221.438 24.0063V27.2363C221.438 27.503 221.494 27.693 221.608 27.8063C221.721 27.913 221.918 27.9663 222.198 27.9663H222.868V28.7363H222.048C221.541 28.7363 221.161 28.6197 220.908 28.3863C220.654 28.153 220.528 27.7697 220.528 27.2363V24.0063H219.818V23.2563H220.528V21.8763H221.438V23.2563H222.868V24.0063H221.438ZM228.97 25.7863C228.97 25.9597 228.96 26.143 228.94 26.3363H224.56C224.594 26.8763 224.777 27.2997 225.11 27.6063C225.45 27.9063 225.86 28.0563 226.34 28.0563C226.734 28.0563 227.06 27.9663 227.32 27.7863C227.587 27.5997 227.774 27.353 227.88 27.0463H228.86C228.714 27.573 228.42 28.003 227.98 28.3363C227.54 28.663 226.994 28.8263 226.34 28.8263C225.82 28.8263 225.354 28.7097 224.94 28.4763C224.534 28.243 224.214 27.913 223.98 27.4863C223.747 27.053 223.63 26.553 223.63 25.9863C223.63 25.4197 223.744 24.923 223.97 24.4963C224.197 24.0697 224.514 23.743 224.92 23.5163C225.334 23.283 225.807 23.1663 226.34 23.1663C226.86 23.1663 227.32 23.2797 227.72 23.5063C228.12 23.733 228.427 24.0463 228.64 24.4463C228.86 24.8397 228.97 25.2863 228.97 25.7863ZM228.03 25.5963C228.03 25.2497 227.954 24.953 227.8 24.7063C227.647 24.453 227.437 24.263 227.17 24.1363C226.91 24.003 226.62 23.9363 226.3 23.9363C225.84 23.9363 225.447 24.083 225.12 24.3763C224.8 24.6697 224.617 25.0763 224.57 25.5963H228.03Z" fill="#14171B"/>
<rect x="242.359" y="17.0718" width="71" height="16.3293" rx="8.16467" fill="#D73B6B"/>
<path d="M253.229 25.2463C253.229 24.5663 253.386 23.9563 253.699 23.4163C254.019 22.8763 254.449 22.4563 254.989 22.1563C255.536 21.8497 256.132 21.6963 256.779 21.6963C257.519 21.6963 258.176 21.8797 258.749 22.2463C259.329 22.6063 259.749 23.1197 260.009 23.7863H258.639C258.459 23.4197 258.209 23.1463 257.889 22.9663C257.569 22.7863 257.199 22.6963 256.779 22.6963C256.319 22.6963 255.909 22.7997 255.549 23.0063C255.189 23.213 254.906 23.5097 254.699 23.8963C254.499 24.283 254.399 24.733 254.399 25.2463C254.399 25.7597 254.499 26.2097 254.699 26.5963C254.906 26.983 255.189 27.283 255.549 27.4963C255.909 27.703 256.319 27.8063 256.779 27.8063C257.199 27.8063 257.569 27.7163 257.889 27.5363C258.209 27.3563 258.459 27.083 258.639 26.7163H260.009C259.749 27.383 259.329 27.8963 258.749 28.2563C258.176 28.6163 257.519 28.7963 256.779 28.7963C256.126 28.7963 255.529 28.6463 254.989 28.3463C254.449 28.0397 254.019 27.6163 253.699 27.0763C253.386 26.5363 253.229 25.9263 253.229 25.2463ZM263.734 28.8263C263.214 28.8263 262.744 28.7097 262.324 28.4763C261.904 28.2363 261.574 27.903 261.334 27.4763C261.094 27.043 260.974 26.543 260.974 25.9763C260.974 25.4163 261.097 24.9197 261.344 24.4863C261.59 24.053 261.927 23.7197 262.354 23.4863C262.78 23.253 263.257 23.1363 263.784 23.1363C264.31 23.1363 264.787 23.253 265.214 23.4863C265.64 23.7197 265.977 24.053 266.224 24.4863C266.47 24.9197 266.594 25.4163 266.594 25.9763C266.594 26.5363 266.467 27.033 266.214 27.4663C265.96 27.8997 265.614 28.2363 265.174 28.4763C264.74 28.7097 264.26 28.8263 263.734 28.8263ZM263.734 27.8363C264.027 27.8363 264.3 27.7663 264.554 27.6263C264.814 27.4863 265.024 27.2763 265.184 26.9963C265.344 26.7163 265.424 26.3763 265.424 25.9763C265.424 25.5763 265.347 25.2397 265.194 24.9663C265.04 24.6863 264.837 24.4763 264.584 24.3363C264.33 24.1963 264.057 24.1263 263.764 24.1263C263.47 24.1263 263.197 24.1963 262.944 24.3363C262.697 24.4763 262.5 24.6863 262.354 24.9663C262.207 25.2397 262.134 25.5763 262.134 25.9763C262.134 26.5697 262.284 27.0297 262.584 27.3563C262.89 27.6763 263.274 27.8363 263.734 27.8363ZM270.5 23.1363C270.934 23.1363 271.32 23.2263 271.66 23.4063C272.007 23.5863 272.277 23.853 272.47 24.2063C272.664 24.5597 272.76 24.9863 272.76 25.4863V28.7363H271.63V25.6563C271.63 25.163 271.507 24.7863 271.26 24.5263C271.014 24.2597 270.677 24.1263 270.25 24.1263C269.824 24.1263 269.484 24.2597 269.23 24.5263C268.984 24.7863 268.86 25.163 268.86 25.6563V28.7363H267.72V23.2263H268.86V23.8563C269.047 23.6297 269.284 23.453 269.57 23.3263C269.864 23.1997 270.174 23.1363 270.5 23.1363ZM276.525 24.1563H275.505V28.7363H274.355V24.1563H273.705V23.2263H274.355V22.8363C274.355 22.203 274.521 21.743 274.855 21.4563C275.195 21.163 275.725 21.0163 276.445 21.0163V21.9663C276.098 21.9663 275.855 22.033 275.715 22.1663C275.575 22.293 275.505 22.5163 275.505 22.8363V23.2263H276.525V24.1563ZM278.115 22.4963C277.908 22.4963 277.735 22.4263 277.595 22.2863C277.455 22.1463 277.385 21.973 277.385 21.7663C277.385 21.5597 277.455 21.3863 277.595 21.2463C277.735 21.1063 277.908 21.0363 278.115 21.0363C278.315 21.0363 278.485 21.1063 278.625 21.2463C278.765 21.3863 278.835 21.5597 278.835 21.7663C278.835 21.973 278.765 22.1463 278.625 22.2863C278.485 22.4263 278.315 22.4963 278.115 22.4963ZM278.675 23.2263V28.7363H277.535V23.2263H278.675ZM282.392 23.1363C282.818 23.1363 283.195 23.223 283.522 23.3963C283.855 23.563 284.115 23.773 284.302 24.0263V23.2263H285.452V28.8263C285.452 29.333 285.345 29.783 285.132 30.1763C284.918 30.5763 284.608 30.8897 284.202 31.1163C283.802 31.343 283.322 31.4563 282.762 31.4563C282.015 31.4563 281.395 31.2797 280.902 30.9263C280.408 30.5797 280.128 30.1063 280.062 29.5063H281.192C281.278 29.793 281.462 30.023 281.742 30.1963C282.028 30.3763 282.368 30.4663 282.762 30.4663C283.222 30.4663 283.592 30.3263 283.872 30.0463C284.158 29.7663 284.302 29.3597 284.302 28.8263V27.9063C284.108 28.1663 283.845 28.3863 283.512 28.5663C283.185 28.7397 282.812 28.8263 282.392 28.8263C281.912 28.8263 281.472 28.7063 281.072 28.4663C280.678 28.2197 280.365 27.8797 280.132 27.4463C279.905 27.0063 279.792 26.5097 279.792 25.9563C279.792 25.403 279.905 24.913 280.132 24.4863C280.365 24.0597 280.678 23.7297 281.072 23.4963C281.472 23.2563 281.912 23.1363 282.392 23.1363ZM284.302 25.9763C284.302 25.5963 284.222 25.2663 284.062 24.9863C283.908 24.7063 283.705 24.493 283.452 24.3463C283.198 24.1997 282.925 24.1263 282.632 24.1263C282.338 24.1263 282.065 24.1997 281.812 24.3463C281.558 24.4863 281.352 24.6963 281.192 24.9763C281.038 25.2497 280.962 25.5763 280.962 25.9563C280.962 26.3363 281.038 26.6697 281.192 26.9563C281.352 27.243 281.558 27.463 281.812 27.6163C282.072 27.763 282.345 27.8363 282.632 27.8363C282.925 27.8363 283.198 27.763 283.452 27.6163C283.705 27.4697 283.908 27.2563 284.062 26.9763C284.222 26.6897 284.302 26.3563 284.302 25.9763ZM291.939 23.2263V28.7363H290.799V28.0863C290.619 28.313 290.382 28.493 290.089 28.6263C289.802 28.753 289.496 28.8163 289.169 28.8163C288.736 28.8163 288.346 28.7263 287.999 28.5463C287.659 28.3663 287.389 28.0997 287.189 27.7463C286.996 27.393 286.899 26.9663 286.899 26.4663V23.2263H288.029V26.2963C288.029 26.7897 288.152 27.1697 288.399 27.4363C288.646 27.6963 288.982 27.8263 289.409 27.8263C289.836 27.8263 290.172 27.6963 290.419 27.4363C290.672 27.1697 290.799 26.7897 290.799 26.2963V23.2263H291.939ZM294.583 24.0263C294.75 23.7463 294.97 23.5297 295.243 23.3763C295.523 23.2163 295.853 23.1363 296.233 23.1363V24.3163H295.943C295.496 24.3163 295.156 24.4297 294.923 24.6563C294.696 24.883 294.583 25.2763 294.583 25.8363V28.7363H293.443V23.2263H294.583V24.0263ZM302.331 25.8463C302.331 26.053 302.318 26.2397 302.291 26.4063H298.081C298.114 26.8463 298.278 27.1997 298.571 27.4663C298.864 27.733 299.224 27.8663 299.651 27.8663C300.264 27.8663 300.698 27.6097 300.951 27.0963H302.181C302.014 27.603 301.711 28.0197 301.271 28.3463C300.838 28.6663 300.298 28.8263 299.651 28.8263C299.124 28.8263 298.651 28.7097 298.231 28.4763C297.818 28.2363 297.491 27.903 297.251 27.4763C297.018 27.043 296.901 26.543 296.901 25.9763C296.901 25.4097 297.014 24.913 297.241 24.4863C297.474 24.053 297.798 23.7197 298.211 23.4863C298.631 23.253 299.111 23.1363 299.651 23.1363C300.171 23.1363 300.634 23.2497 301.041 23.4763C301.448 23.703 301.764 24.023 301.991 24.4363C302.218 24.843 302.331 25.313 302.331 25.8463ZM301.141 25.4863C301.134 25.0663 300.984 24.7297 300.691 24.4763C300.398 24.223 300.034 24.0963 299.601 24.0963C299.208 24.0963 298.871 24.223 298.591 24.4763C298.311 24.723 298.144 25.0597 298.091 25.4863H301.141Z" fill="white"/>
</g>
<g filter="url(#filter2_d_6412_6494)">
<rect x="91.8086" y="258" width="311.497" height="30" rx="15" fill="white" shape-rendering="crispEdges"/>
<rect x="92.0122" y="258.204" width="311.09" height="29.5928" rx="14.7964" stroke="#E8E8E8" stroke-width="0.407186" shape-rendering="crispEdges"/>
<path opacity="0.4" d="M107.792 269.58V276.5H106.882V271.34L104.582 276.5H103.942L101.632 271.33V276.5H100.722V269.58H101.702L104.262 275.3L106.822 269.58H107.792ZM114.336 273.55C114.336 273.723 114.326 273.907 114.306 274.1H109.926C109.959 274.64 110.142 275.063 110.476 275.37C110.816 275.67 111.226 275.82 111.706 275.82C112.099 275.82 112.426 275.73 112.686 275.55C112.952 275.363 113.139 275.117 113.246 274.81H114.226C114.079 275.337 113.786 275.767 113.346 276.1C112.906 276.427 112.359 276.59 111.706 276.59C111.186 276.59 110.719 276.473 110.306 276.24C109.899 276.007 109.579 275.677 109.346 275.25C109.112 274.817 108.996 274.317 108.996 273.75C108.996 273.183 109.109 272.687 109.336 272.26C109.562 271.833 109.879 271.507 110.286 271.28C110.699 271.047 111.172 270.93 111.706 270.93C112.226 270.93 112.686 271.043 113.086 271.27C113.486 271.497 113.792 271.81 114.006 272.21C114.226 272.603 114.336 273.05 114.336 273.55ZM113.396 273.36C113.396 273.013 113.319 272.717 113.166 272.47C113.012 272.217 112.802 272.027 112.536 271.9C112.276 271.767 111.986 271.7 111.666 271.7C111.206 271.7 110.812 271.847 110.486 272.14C110.166 272.433 109.982 272.84 109.936 273.36H113.396ZM117.477 276.59C117.057 276.59 116.68 276.52 116.347 276.38C116.013 276.233 115.75 276.033 115.557 275.78C115.363 275.52 115.257 275.223 115.237 274.89H116.177C116.203 275.163 116.33 275.387 116.557 275.56C116.79 275.733 117.093 275.82 117.467 275.82C117.813 275.82 118.087 275.743 118.287 275.59C118.487 275.437 118.587 275.243 118.587 275.01C118.587 274.77 118.48 274.593 118.267 274.48C118.053 274.36 117.723 274.243 117.277 274.13C116.87 274.023 116.537 273.917 116.277 273.81C116.023 273.697 115.803 273.533 115.617 273.32C115.437 273.1 115.347 272.813 115.347 272.46C115.347 272.18 115.43 271.923 115.597 271.69C115.763 271.457 116 271.273 116.307 271.14C116.613 271 116.963 270.93 117.357 270.93C117.963 270.93 118.453 271.083 118.827 271.39C119.2 271.697 119.4 272.117 119.427 272.65H118.517C118.497 272.363 118.38 272.133 118.167 271.96C117.96 271.787 117.68 271.7 117.327 271.7C117 271.7 116.74 271.77 116.547 271.91C116.353 272.05 116.257 272.233 116.257 272.46C116.257 272.64 116.313 272.79 116.427 272.91C116.547 273.023 116.693 273.117 116.867 273.19C117.047 273.257 117.293 273.333 117.607 273.42C118 273.527 118.32 273.633 118.567 273.74C118.813 273.84 119.023 273.993 119.197 274.2C119.377 274.407 119.47 274.677 119.477 275.01C119.477 275.31 119.393 275.58 119.227 275.82C119.06 276.06 118.823 276.25 118.517 276.39C118.217 276.523 117.87 276.59 117.477 276.59ZM122.701 276.59C122.281 276.59 121.905 276.52 121.571 276.38C121.238 276.233 120.975 276.033 120.781 275.78C120.588 275.52 120.481 275.223 120.461 274.89H121.401C121.428 275.163 121.555 275.387 121.781 275.56C122.015 275.733 122.318 275.82 122.691 275.82C123.038 275.82 123.311 275.743 123.511 275.59C123.711 275.437 123.811 275.243 123.811 275.01C123.811 274.77 123.705 274.593 123.491 274.48C123.278 274.36 122.948 274.243 122.501 274.13C122.095 274.023 121.761 273.917 121.501 273.81C121.248 273.697 121.028 273.533 120.841 273.32C120.661 273.1 120.571 272.813 120.571 272.46C120.571 272.18 120.655 271.923 120.821 271.69C120.988 271.457 121.225 271.273 121.531 271.14C121.838 271 122.188 270.93 122.581 270.93C123.188 270.93 123.678 271.083 124.051 271.39C124.425 271.697 124.625 272.117 124.651 272.65H123.741C123.721 272.363 123.605 272.133 123.391 271.96C123.185 271.787 122.905 271.7 122.551 271.7C122.225 271.7 121.965 271.77 121.771 271.91C121.578 272.05 121.481 272.233 121.481 272.46C121.481 272.64 121.538 272.79 121.651 272.91C121.771 273.023 121.918 273.117 122.091 273.19C122.271 273.257 122.518 273.333 122.831 273.42C123.225 273.527 123.545 273.633 123.791 273.74C124.038 273.84 124.248 273.993 124.421 274.2C124.601 274.407 124.695 274.677 124.701 275.01C124.701 275.31 124.618 275.58 124.451 275.82C124.285 276.06 124.048 276.25 123.741 276.39C123.441 276.523 123.095 276.59 122.701 276.59ZM125.646 273.74C125.646 273.18 125.759 272.69 125.986 272.27C126.213 271.843 126.523 271.513 126.916 271.28C127.316 271.047 127.759 270.93 128.246 270.93C128.726 270.93 129.143 271.033 129.496 271.24C129.849 271.447 130.113 271.707 130.286 272.02V271.02H131.206V276.5H130.286V275.48C130.106 275.8 129.836 276.067 129.476 276.28C129.123 276.487 128.709 276.59 128.236 276.59C127.749 276.59 127.309 276.47 126.916 276.23C126.523 275.99 126.213 275.653 125.986 275.22C125.759 274.787 125.646 274.293 125.646 273.74ZM130.286 273.75C130.286 273.337 130.203 272.977 130.036 272.67C129.869 272.363 129.643 272.13 129.356 271.97C129.076 271.803 128.766 271.72 128.426 271.72C128.086 271.72 127.776 271.8 127.496 271.96C127.216 272.12 126.993 272.353 126.826 272.66C126.659 272.967 126.576 273.327 126.576 273.74C126.576 274.16 126.659 274.527 126.826 274.84C126.993 275.147 127.216 275.383 127.496 275.55C127.776 275.71 128.086 275.79 128.426 275.79C128.766 275.79 129.076 275.71 129.356 275.55C129.643 275.383 129.869 275.147 130.036 274.84C130.203 274.527 130.286 274.163 130.286 273.75ZM135.004 270.93C135.477 270.93 135.89 271.033 136.244 271.24C136.604 271.447 136.87 271.707 137.044 272.02V271.02H137.964V276.62C137.964 277.12 137.857 277.563 137.644 277.95C137.43 278.343 137.124 278.65 136.724 278.87C136.33 279.09 135.87 279.2 135.344 279.2C134.624 279.2 134.024 279.03 133.544 278.69C133.064 278.35 132.78 277.887 132.694 277.3H133.594C133.694 277.633 133.9 277.9 134.214 278.1C134.527 278.307 134.904 278.41 135.344 278.41C135.844 278.41 136.25 278.253 136.564 277.94C136.884 277.627 137.044 277.187 137.044 276.62V275.47C136.864 275.79 136.597 276.057 136.244 276.27C135.89 276.483 135.477 276.59 135.004 276.59C134.517 276.59 134.074 276.47 133.674 276.23C133.28 275.99 132.97 275.653 132.744 275.22C132.517 274.787 132.404 274.293 132.404 273.74C132.404 273.18 132.517 272.69 132.744 272.27C132.97 271.843 133.28 271.513 133.674 271.28C134.074 271.047 134.517 270.93 135.004 270.93ZM137.044 273.75C137.044 273.337 136.96 272.977 136.794 272.67C136.627 272.363 136.4 272.13 136.114 271.97C135.834 271.803 135.524 271.72 135.184 271.72C134.844 271.72 134.534 271.8 134.254 271.96C133.974 272.12 133.75 272.353 133.584 272.66C133.417 272.967 133.334 273.327 133.334 273.74C133.334 274.16 133.417 274.527 133.584 274.84C133.75 275.147 133.974 275.383 134.254 275.55C134.534 275.71 134.844 275.79 135.184 275.79C135.524 275.79 135.834 275.71 136.114 275.55C136.4 275.383 136.627 275.147 136.794 274.84C136.96 274.527 137.044 274.163 137.044 273.75ZM144.502 273.55C144.502 273.723 144.492 273.907 144.472 274.1H140.092C140.125 274.64 140.308 275.063 140.642 275.37C140.982 275.67 141.392 275.82 141.872 275.82C142.265 275.82 142.592 275.73 142.852 275.55C143.118 275.363 143.305 275.117 143.412 274.81H144.392C144.245 275.337 143.952 275.767 143.512 276.1C143.072 276.427 142.525 276.59 141.872 276.59C141.352 276.59 140.885 276.473 140.472 276.24C140.065 276.007 139.745 275.677 139.512 275.25C139.278 274.817 139.162 274.317 139.162 273.75C139.162 273.183 139.275 272.687 139.502 272.26C139.728 271.833 140.045 271.507 140.452 271.28C140.865 271.047 141.338 270.93 141.872 270.93C142.392 270.93 142.852 271.043 143.252 271.27C143.652 271.497 143.958 271.81 144.172 272.21C144.392 272.603 144.502 273.05 144.502 273.55ZM143.562 273.36C143.562 273.013 143.485 272.717 143.332 272.47C143.178 272.217 142.968 272.027 142.702 271.9C142.442 271.767 142.152 271.7 141.832 271.7C141.372 271.7 140.978 271.847 140.652 272.14C140.332 272.433 140.148 272.84 140.102 273.36H143.562ZM153.649 271.55C153.455 271.143 153.175 270.83 152.809 270.61C152.442 270.383 152.015 270.27 151.529 270.27C151.042 270.27 150.602 270.383 150.209 270.61C149.822 270.83 149.515 271.15 149.289 271.57C149.069 271.983 148.959 272.463 148.959 273.01C148.959 273.557 149.069 274.037 149.289 274.45C149.515 274.863 149.822 275.183 150.209 275.41C150.602 275.63 151.042 275.74 151.529 275.74C152.209 275.74 152.769 275.537 153.209 275.13C153.649 274.723 153.905 274.173 153.979 273.48H151.199V272.74H154.949V273.44C154.895 274.013 154.715 274.54 154.409 275.02C154.102 275.493 153.699 275.87 153.199 276.15C152.699 276.423 152.142 276.56 151.529 276.56C150.882 276.56 150.292 276.41 149.759 276.11C149.225 275.803 148.802 275.38 148.489 274.84C148.182 274.3 148.029 273.69 148.029 273.01C148.029 272.33 148.182 271.72 148.489 271.18C148.802 270.633 149.225 270.21 149.759 269.91C150.292 269.603 150.882 269.45 151.529 269.45C152.269 269.45 152.922 269.633 153.489 270C154.062 270.367 154.479 270.883 154.739 271.55H153.649ZM160.812 271.57C160.812 272.15 160.612 272.633 160.212 273.02C159.819 273.4 159.215 273.59 158.402 273.59H157.062V276.5H156.152V269.53H158.402C159.189 269.53 159.785 269.72 160.192 270.1C160.605 270.48 160.812 270.97 160.812 271.57ZM158.402 272.84C158.909 272.84 159.282 272.73 159.522 272.51C159.762 272.29 159.882 271.977 159.882 271.57C159.882 270.71 159.389 270.28 158.402 270.28H157.062V272.84H158.402ZM166.233 269.53V270.27H164.333V276.5H163.423V270.27H161.513V269.53H166.233ZM170.929 272.04C171.116 271.713 171.389 271.447 171.749 271.24C172.109 271.033 172.519 270.93 172.979 270.93C173.473 270.93 173.916 271.047 174.309 271.28C174.703 271.513 175.013 271.843 175.239 272.27C175.466 272.69 175.579 273.18 175.579 273.74C175.579 274.293 175.466 274.787 175.239 275.22C175.013 275.653 174.699 275.99 174.299 276.23C173.906 276.47 173.466 276.59 172.979 276.59C172.506 276.59 172.089 276.487 171.729 276.28C171.376 276.073 171.109 275.81 170.929 275.49V276.5H170.019V269.1H170.929V272.04ZM174.649 273.74C174.649 273.327 174.566 272.967 174.399 272.66C174.233 272.353 174.006 272.12 173.719 271.96C173.439 271.8 173.129 271.72 172.789 271.72C172.456 271.72 172.146 271.803 171.859 271.97C171.579 272.13 171.353 272.367 171.179 272.68C171.013 272.987 170.929 273.343 170.929 273.75C170.929 274.163 171.013 274.527 171.179 274.84C171.353 275.147 171.579 275.383 171.859 275.55C172.146 275.71 172.456 275.79 172.789 275.79C173.129 275.79 173.439 275.71 173.719 275.55C174.006 275.383 174.233 275.147 174.399 274.84C174.566 274.527 174.649 274.16 174.649 273.74ZM181.637 271.02V276.5H180.727V275.69C180.554 275.97 180.31 276.19 179.997 276.35C179.69 276.503 179.35 276.58 178.977 276.58C178.55 276.58 178.167 276.493 177.827 276.32C177.487 276.14 177.217 275.873 177.017 275.52C176.824 275.167 176.727 274.737 176.727 274.23V271.02H177.627V274.11C177.627 274.65 177.764 275.067 178.037 275.36C178.31 275.647 178.684 275.79 179.157 275.79C179.644 275.79 180.027 275.64 180.307 275.34C180.587 275.04 180.727 274.603 180.727 274.03V271.02H181.637ZM183.643 270.13C183.47 270.13 183.323 270.07 183.203 269.95C183.083 269.83 183.023 269.683 183.023 269.51C183.023 269.337 183.083 269.19 183.203 269.07C183.323 268.95 183.47 268.89 183.643 268.89C183.81 268.89 183.95 268.95 184.063 269.07C184.183 269.19 184.243 269.337 184.243 269.51C184.243 269.683 184.183 269.83 184.063 269.95C183.95 270.07 183.81 270.13 183.643 270.13ZM184.083 271.02V276.5H183.173V271.02H184.083ZM186.544 269.1V276.5H185.634V269.1H186.544ZM187.755 273.74C187.755 273.18 187.869 272.69 188.095 272.27C188.322 271.843 188.632 271.513 189.025 271.28C189.425 271.047 189.872 270.93 190.365 270.93C190.792 270.93 191.189 271.03 191.555 271.23C191.922 271.423 192.202 271.68 192.395 272V269.1H193.315V276.5H192.395V275.47C192.215 275.797 191.949 276.067 191.595 276.28C191.242 276.487 190.829 276.59 190.355 276.59C189.869 276.59 189.425 276.47 189.025 276.23C188.632 275.99 188.322 275.653 188.095 275.22C187.869 274.787 187.755 274.293 187.755 273.74ZM192.395 273.75C192.395 273.337 192.312 272.977 192.145 272.67C191.979 272.363 191.752 272.13 191.465 271.97C191.185 271.803 190.875 271.72 190.535 271.72C190.195 271.72 189.885 271.8 189.605 271.96C189.325 272.12 189.102 272.353 188.935 272.66C188.769 272.967 188.685 273.327 188.685 273.74C188.685 274.16 188.769 274.527 188.935 274.84C189.102 275.147 189.325 275.383 189.605 275.55C189.885 275.71 190.195 275.79 190.535 275.79C190.875 275.79 191.185 275.71 191.465 275.55C191.752 275.383 191.979 275.147 192.145 274.84C192.312 274.527 192.395 274.163 192.395 273.75ZM199.853 273.55C199.853 273.723 199.843 273.907 199.823 274.1H195.443C195.477 274.64 195.66 275.063 195.993 275.37C196.333 275.67 196.743 275.82 197.223 275.82C197.617 275.82 197.943 275.73 198.203 275.55C198.47 275.363 198.657 275.117 198.763 274.81H199.743C199.597 275.337 199.303 275.767 198.863 276.1C198.423 276.427 197.877 276.59 197.223 276.59C196.703 276.59 196.237 276.473 195.823 276.24C195.417 276.007 195.097 275.677 194.863 275.25C194.63 274.817 194.513 274.317 194.513 273.75C194.513 273.183 194.627 272.687 194.853 272.26C195.08 271.833 195.397 271.507 195.803 271.28C196.217 271.047 196.69 270.93 197.223 270.93C197.743 270.93 198.203 271.043 198.603 271.27C199.003 271.497 199.31 271.81 199.523 272.21C199.743 272.603 199.853 273.05 199.853 273.55ZM198.913 273.36C198.913 273.013 198.837 272.717 198.683 272.47C198.53 272.217 198.32 272.027 198.053 271.9C197.793 271.767 197.503 271.7 197.183 271.7C196.723 271.7 196.33 271.847 196.003 272.14C195.683 272.433 195.5 272.84 195.453 273.36H198.913ZM201.964 271.91C202.124 271.597 202.351 271.353 202.644 271.18C202.944 271.007 203.308 270.92 203.734 270.92V271.86H203.494C202.474 271.86 201.964 272.413 201.964 273.52V276.5H201.054V271.02H201.964V271.91ZM205.075 276.56C204.901 276.56 204.755 276.5 204.635 276.38C204.515 276.26 204.455 276.113 204.455 275.94C204.455 275.767 204.515 275.62 204.635 275.5C204.755 275.38 204.901 275.32 205.075 275.32C205.241 275.32 205.381 275.38 205.495 275.5C205.615 275.62 205.675 275.767 205.675 275.94C205.675 276.113 205.615 276.26 205.495 276.38C205.381 276.5 205.241 276.56 205.075 276.56ZM207.174 276.56C207.001 276.56 206.854 276.5 206.734 276.38C206.614 276.26 206.554 276.113 206.554 275.94C206.554 275.767 206.614 275.62 206.734 275.5C206.854 275.38 207.001 275.32 207.174 275.32C207.341 275.32 207.481 275.38 207.594 275.5C207.714 275.62 207.774 275.767 207.774 275.94C207.774 276.113 207.714 276.26 207.594 276.38C207.481 276.5 207.341 276.56 207.174 276.56ZM209.274 276.56C209.101 276.56 208.954 276.5 208.834 276.38C208.714 276.26 208.654 276.113 208.654 275.94C208.654 275.767 208.714 275.62 208.834 275.5C208.954 275.38 209.101 275.32 209.274 275.32C209.441 275.32 209.581 275.38 209.694 275.5C209.814 275.62 209.874 275.767 209.874 275.94C209.874 276.113 209.814 276.26 209.694 276.38C209.581 276.5 209.441 276.56 209.274 276.56Z" fill="#14171B"/>
<g filter="url(#filter3_d_6412_6494)">
<rect x="375.509" y="263.228" width="19.5449" height="19.5449" rx="9.77246" fill="#D73B6B" shape-rendering="crispEdges"/>
<path d="M383.409 270.687L386.866 269.535C388.417 269.018 389.26 269.865 388.747 271.416L387.594 274.873C386.821 277.198 385.55 277.198 384.777 274.873L384.435 273.847L383.409 273.505C381.084 272.731 381.084 271.465 383.409 270.687Z" stroke="white" stroke-width="0.814371" stroke-linecap="round" stroke-linejoin="round"/>
<path d="M384.512 273.672L385.97 272.21" stroke="white" stroke-width="0.814371" stroke-linecap="round" stroke-linejoin="round"/>
</g>
</g>
<circle cx="247.353" cy="80.3952" r="22.5988" stroke="black" stroke-width="0.407186" stroke-dasharray="0.81 0.81"/>
<path d="M247.354 74.9324V85.8585" stroke="#14171B" stroke-width="1.36577" stroke-linecap="round" stroke-linejoin="round"/>
<path d="M241.89 80.3956H252.817" stroke="#14171B" stroke-width="1.36577" stroke-linecap="round" stroke-linejoin="round"/>
<path d="M99.8965 128H98.7565L95.3265 122.81V128H94.1865V121.04H95.3265L98.7565 126.22V121.04H99.8965V128ZM101.014 125.22C101.014 124.667 101.127 124.177 101.354 123.75C101.587 123.323 101.9 122.993 102.294 122.76C102.694 122.52 103.134 122.4 103.614 122.4C104.047 122.4 104.424 122.487 104.744 122.66C105.07 122.827 105.33 123.037 105.524 123.29V122.49H106.674V128H105.524V127.18C105.33 127.44 105.067 127.657 104.734 127.83C104.4 128.003 104.02 128.09 103.594 128.09C103.12 128.09 102.687 127.97 102.294 127.73C101.9 127.483 101.587 127.143 101.354 126.71C101.127 126.27 101.014 125.773 101.014 125.22ZM105.524 125.24C105.524 124.86 105.444 124.53 105.284 124.25C105.13 123.97 104.927 123.757 104.674 123.61C104.42 123.463 104.147 123.39 103.854 123.39C103.56 123.39 103.287 123.463 103.034 123.61C102.78 123.75 102.574 123.96 102.414 124.24C102.26 124.513 102.184 124.84 102.184 125.22C102.184 125.6 102.26 125.933 102.414 126.22C102.574 126.507 102.78 126.727 103.034 126.88C103.294 127.027 103.567 127.1 103.854 127.1C104.147 127.1 104.42 127.027 104.674 126.88C104.927 126.733 105.13 126.52 105.284 126.24C105.444 125.953 105.524 125.62 105.524 125.24ZM114.841 122.4C115.274 122.4 115.661 122.49 116.001 122.67C116.348 122.85 116.618 123.117 116.811 123.47C117.011 123.823 117.111 124.25 117.111 124.75V128H115.981V124.92C115.981 124.427 115.858 124.05 115.611 123.79C115.364 123.523 115.028 123.39 114.601 123.39C114.174 123.39 113.834 123.523 113.581 123.79C113.334 124.05 113.211 124.427 113.211 124.92V128H112.081V124.92C112.081 124.427 111.958 124.05 111.711 123.79C111.464 123.523 111.128 123.39 110.701 123.39C110.274 123.39 109.934 123.523 109.681 123.79C109.434 124.05 109.311 124.427 109.311 124.92V128H108.171V122.49H109.311V123.12C109.498 122.893 109.734 122.717 110.021 122.59C110.308 122.463 110.614 122.4 110.941 122.4C111.381 122.4 111.774 122.493 112.121 122.68C112.468 122.867 112.734 123.137 112.921 123.49C113.088 123.157 113.348 122.893 113.701 122.7C114.054 122.5 114.434 122.4 114.841 122.4ZM123.612 125.11C123.612 125.317 123.598 125.503 123.572 125.67H119.362C119.395 126.11 119.558 126.463 119.852 126.73C120.145 126.997 120.505 127.13 120.932 127.13C121.545 127.13 121.978 126.873 122.232 126.36H123.462C123.295 126.867 122.992 127.283 122.552 127.61C122.118 127.93 121.578 128.09 120.932 128.09C120.405 128.09 119.932 127.973 119.512 127.74C119.098 127.5 118.772 127.167 118.532 126.74C118.298 126.307 118.182 125.807 118.182 125.24C118.182 124.673 118.295 124.177 118.522 123.75C118.755 123.317 119.078 122.983 119.492 122.75C119.912 122.517 120.392 122.4 120.932 122.4C121.452 122.4 121.915 122.513 122.322 122.74C122.728 122.967 123.045 123.287 123.272 123.7C123.498 124.107 123.612 124.577 123.612 125.11ZM122.422 124.75C122.415 124.33 122.265 123.993 121.972 123.74C121.678 123.487 121.315 123.36 120.882 123.36C120.488 123.36 120.152 123.487 119.872 123.74C119.592 123.987 119.425 124.323 119.372 124.75H122.422Z" fill="#14171B"/>
<path d="M96.4565 176.068C97.1965 176.068 97.8432 176.211 98.3965 176.498C98.9565 176.778 99.3865 177.185 99.6865 177.718C99.9932 178.245 100.147 178.861 100.147 179.568C100.147 180.275 99.9932 180.888 99.6865 181.408C99.3865 181.928 98.9565 182.328 98.3965 182.608C97.8432 182.881 97.1965 183.018 96.4565 183.018H94.1865V176.068H96.4565ZM96.4565 182.088C97.2699 182.088 97.8932 181.868 98.3265 181.428C98.7599 180.988 98.9765 180.368 98.9765 179.568C98.9765 178.761 98.7599 178.131 98.3265 177.678C97.8932 177.225 97.2699 176.998 96.4565 176.998H95.3265V182.088H96.4565ZM106.326 180.128C106.326 180.335 106.313 180.521 106.286 180.688H102.076C102.11 181.128 102.273 181.481 102.566 181.748C102.86 182.015 103.22 182.148 103.646 182.148C104.26 182.148 104.693 181.891 104.946 181.378H106.176C106.01 181.885 105.706 182.301 105.266 182.628C104.833 182.948 104.293 183.108 103.646 183.108C103.12 183.108 102.646 182.991 102.226 182.758C101.813 182.518 101.486 182.185 101.246 181.758C101.013 181.325 100.896 180.825 100.896 180.258C100.896 179.691 101.01 179.195 101.236 178.768C101.47 178.335 101.793 178.001 102.206 177.768C102.626 177.535 103.106 177.418 103.646 177.418C104.166 177.418 104.63 177.531 105.036 177.758C105.443 177.985 105.76 178.305 105.986 178.718C106.213 179.125 106.326 179.595 106.326 180.128ZM105.136 179.768C105.13 179.348 104.98 179.011 104.686 178.758C104.393 178.505 104.03 178.378 103.596 178.378C103.203 178.378 102.866 178.505 102.586 178.758C102.306 179.005 102.14 179.341 102.086 179.768H105.136ZM109.448 183.108C109.015 183.108 108.625 183.031 108.278 182.878C107.938 182.718 107.668 182.505 107.468 182.238C107.268 181.965 107.162 181.661 107.148 181.328H108.328C108.348 181.561 108.458 181.758 108.658 181.918C108.865 182.071 109.122 182.148 109.428 182.148C109.748 182.148 109.995 182.088 110.168 181.968C110.348 181.841 110.438 181.681 110.438 181.488C110.438 181.281 110.338 181.128 110.138 181.028C109.945 180.928 109.635 180.818 109.208 180.698C108.795 180.585 108.458 180.475 108.198 180.368C107.938 180.261 107.712 180.098 107.518 179.878C107.332 179.658 107.238 179.368 107.238 179.008C107.238 178.715 107.325 178.448 107.498 178.208C107.672 177.961 107.918 177.768 108.238 177.628C108.565 177.488 108.938 177.418 109.358 177.418C109.985 177.418 110.488 177.578 110.868 177.898C111.255 178.211 111.462 178.641 111.488 179.188H110.348C110.328 178.941 110.228 178.745 110.048 178.598C109.868 178.451 109.625 178.378 109.318 178.378C109.018 178.378 108.788 178.435 108.628 178.548C108.468 178.661 108.388 178.811 108.388 178.998C108.388 179.145 108.442 179.268 108.548 179.368C108.655 179.468 108.785 179.548 108.938 179.608C109.092 179.661 109.318 179.731 109.618 179.818C110.018 179.925 110.345 180.035 110.598 180.148C110.858 180.255 111.082 180.415 111.268 180.628C111.455 180.841 111.552 181.125 111.558 181.478C111.558 181.791 111.472 182.071 111.298 182.318C111.125 182.565 110.878 182.758 110.558 182.898C110.245 183.038 109.875 183.108 109.448 183.108ZM112.41 180.258C112.41 179.691 112.523 179.195 112.75 178.768C112.983 178.335 113.303 178.001 113.71 177.768C114.117 177.535 114.583 177.418 115.11 177.418C115.777 177.418 116.327 177.578 116.76 177.898C117.2 178.211 117.497 178.661 117.65 179.248H116.42C116.32 178.975 116.16 178.761 115.94 178.608C115.72 178.455 115.443 178.378 115.11 178.378C114.643 178.378 114.27 178.545 113.99 178.878C113.717 179.205 113.58 179.665 113.58 180.258C113.58 180.851 113.717 181.315 113.99 181.648C114.27 181.981 114.643 182.148 115.11 182.148C115.77 182.148 116.207 181.858 116.42 181.278H117.65C117.49 181.838 117.19 182.285 116.75 182.618C116.31 182.945 115.763 183.108 115.11 183.108C114.583 183.108 114.117 182.991 113.71 182.758C113.303 182.518 112.983 182.185 112.75 181.758C112.523 181.325 112.41 180.825 112.41 180.258ZM119.926 178.308C120.093 178.028 120.313 177.811 120.586 177.658C120.866 177.498 121.196 177.418 121.576 177.418V178.598H121.286C120.839 178.598 120.499 178.711 120.266 178.938C120.039 179.165 119.926 179.558 119.926 180.118V183.018H118.786V177.508H119.926V178.308ZM123.204 176.778C122.997 176.778 122.824 176.708 122.684 176.568C122.544 176.428 122.474 176.255 122.474 176.048C122.474 175.841 122.544 175.668 122.684 175.528C122.824 175.388 122.997 175.318 123.204 175.318C123.404 175.318 123.574 175.388 123.714 175.528C123.854 175.668 123.924 175.841 123.924 176.048C123.924 176.255 123.854 176.428 123.714 176.568C123.574 176.708 123.404 176.778 123.204 176.778ZM123.764 177.508V183.018H122.624V177.508H123.764ZM126.401 178.318C126.594 178.065 126.857 177.851 127.191 177.678C127.524 177.505 127.901 177.418 128.321 177.418C128.801 177.418 129.237 177.538 129.631 177.778C130.031 178.011 130.344 178.341 130.571 178.768C130.797 179.195 130.911 179.685 130.911 180.238C130.911 180.791 130.797 181.288 130.571 181.728C130.344 182.161 130.031 182.501 129.631 182.748C129.237 182.988 128.801 183.108 128.321 183.108C127.901 183.108 127.527 183.025 127.201 182.858C126.874 182.685 126.607 182.471 126.401 182.218V185.638H125.261V177.508H126.401V178.318ZM129.751 180.238C129.751 179.858 129.671 179.531 129.511 179.258C129.357 178.978 129.151 178.768 128.891 178.628C128.637 178.481 128.364 178.408 128.071 178.408C127.784 178.408 127.511 178.481 127.251 178.628C126.997 178.775 126.791 178.988 126.631 179.268C126.477 179.548 126.401 179.878 126.401 180.258C126.401 180.638 126.477 180.971 126.631 181.258C126.791 181.538 126.997 181.751 127.251 181.898C127.511 182.045 127.784 182.118 128.071 182.118C128.364 182.118 128.637 182.045 128.891 181.898C129.151 181.745 129.357 181.525 129.511 181.238C129.671 180.951 129.751 180.618 129.751 180.238ZM133.368 178.438V181.488C133.368 181.695 133.415 181.845 133.508 181.938C133.608 182.025 133.775 182.068 134.008 182.068H134.708V183.018H133.808C133.295 183.018 132.901 182.898 132.628 182.658C132.355 182.418 132.218 182.028 132.218 181.488V178.438H131.568V177.508H132.218V176.138H133.368V177.508H134.708V178.438H133.368ZM136.339 176.778C136.132 176.778 135.959 176.708 135.819 176.568C135.679 176.428 135.609 176.255 135.609 176.048C135.609 175.841 135.679 175.668 135.819 175.528C135.959 175.388 136.132 175.318 136.339 175.318C136.539 175.318 136.709 175.388 136.849 175.528C136.989 175.668 137.059 175.841 137.059 176.048C137.059 176.255 136.989 176.428 136.849 176.568C136.709 176.708 136.539 176.778 136.339 176.778ZM136.899 177.508V183.018H135.759V177.508H136.899ZM140.786 183.108C140.266 183.108 139.796 182.991 139.376 182.758C138.956 182.518 138.626 182.185 138.386 181.758C138.146 181.325 138.026 180.825 138.026 180.258C138.026 179.698 138.149 179.201 138.396 178.768C138.642 178.335 138.979 178.001 139.406 177.768C139.832 177.535 140.309 177.418 140.836 177.418C141.362 177.418 141.839 177.535 142.266 177.768C142.692 178.001 143.029 178.335 143.276 178.768C143.522 179.201 143.646 179.698 143.646 180.258C143.646 180.818 143.519 181.315 143.266 181.748C143.012 182.181 142.666 182.518 142.226 182.758C141.792 182.991 141.312 183.108 140.786 183.108ZM140.786 182.118C141.079 182.118 141.352 182.048 141.606 181.908C141.866 181.768 142.076 181.558 142.236 181.278C142.396 180.998 142.476 180.658 142.476 180.258C142.476 179.858 142.399 179.521 142.246 179.248C142.092 178.968 141.889 178.758 141.636 178.618C141.382 178.478 141.109 178.408 140.816 178.408C140.522 178.408 140.249 178.478 139.996 178.618C139.749 178.758 139.552 178.968 139.406 179.248C139.259 179.521 139.186 179.858 139.186 180.258C139.186 180.851 139.336 181.311 139.636 181.638C139.942 181.958 140.326 182.118 140.786 182.118ZM147.552 177.418C147.986 177.418 148.372 177.508 148.712 177.688C149.059 177.868 149.329 178.135 149.522 178.488C149.716 178.841 149.812 179.268 149.812 179.768V183.018H148.682V179.938C148.682 179.445 148.559 179.068 148.312 178.808C148.066 178.541 147.729 178.408 147.302 178.408C146.876 178.408 146.536 178.541 146.282 178.808C146.036 179.068 145.912 179.445 145.912 179.938V183.018H144.772V177.508H145.912V178.138C146.099 177.911 146.336 177.735 146.622 177.608C146.916 177.481 147.226 177.418 147.552 177.418Z" fill="#14171B"/>
<rect x="93.4365" y="131.809" width="313.126" height="30" rx="8" fill="#F2F2F2"/>
<path opacity="0.4" d="M103.758 150.309H102.848L99.1884 144.759V150.309H98.2784V143.329H99.1884L102.848 148.869V143.329H103.758V150.309ZM104.97 147.549C104.97 146.989 105.083 146.499 105.31 146.079C105.536 145.652 105.846 145.322 106.24 145.089C106.64 144.855 107.083 144.739 107.57 144.739C108.05 144.739 108.466 144.842 108.82 145.049C109.173 145.255 109.436 145.515 109.61 145.829V144.829H110.53V150.309H109.61V149.289C109.43 149.609 109.16 149.875 108.8 150.089C108.446 150.295 108.033 150.399 107.56 150.399C107.073 150.399 106.633 150.279 106.24 150.039C105.846 149.799 105.536 149.462 105.31 149.029C105.083 148.595 104.97 148.102 104.97 147.549ZM109.61 147.559C109.61 147.145 109.526 146.785 109.36 146.479C109.193 146.172 108.966 145.939 108.68 145.779C108.4 145.612 108.09 145.529 107.75 145.529C107.41 145.529 107.1 145.609 106.82 145.769C106.54 145.929 106.316 146.162 106.15 146.469C105.983 146.775 105.9 147.135 105.9 147.549C105.9 147.969 105.983 148.335 106.15 148.649C106.316 148.955 106.54 149.192 106.82 149.359C107.1 149.519 107.41 149.599 107.75 149.599C108.09 149.599 108.4 149.519 108.68 149.359C108.966 149.192 109.193 148.955 109.36 148.649C109.526 148.335 109.61 147.972 109.61 147.559ZM118.657 144.729C119.084 144.729 119.464 144.819 119.797 144.999C120.131 145.172 120.394 145.435 120.587 145.789C120.781 146.142 120.877 146.572 120.877 147.079V150.309H119.977V147.209C119.977 146.662 119.841 146.245 119.567 145.959C119.301 145.665 118.937 145.519 118.477 145.519C118.004 145.519 117.627 145.672 117.347 145.979C117.067 146.279 116.927 146.715 116.927 147.289V150.309H116.027V147.209C116.027 146.662 115.891 146.245 115.617 145.959C115.351 145.665 114.987 145.519 114.527 145.519C114.054 145.519 113.677 145.672 113.397 145.979C113.117 146.279 112.977 146.715 112.977 147.289V150.309H112.067V144.829H112.977V145.619C113.157 145.332 113.397 145.112 113.697 144.959C114.004 144.805 114.341 144.729 114.707 144.729C115.167 144.729 115.574 144.832 115.927 145.039C116.281 145.245 116.544 145.549 116.717 145.949C116.871 145.562 117.124 145.262 117.477 145.049C117.831 144.835 118.224 144.729 118.657 144.729ZM127.37 147.359C127.37 147.532 127.36 147.715 127.34 147.909H122.96C122.994 148.449 123.177 148.872 123.51 149.179C123.85 149.479 124.26 149.629 124.74 149.629C125.134 149.629 125.46 149.539 125.72 149.359C125.987 149.172 126.174 148.925 126.28 148.619H127.26C127.114 149.145 126.82 149.575 126.38 149.909C125.94 150.235 125.394 150.399 124.74 150.399C124.22 150.399 123.754 150.282 123.34 150.049C122.934 149.815 122.614 149.485 122.38 149.059C122.147 148.625 122.03 148.125 122.03 147.559C122.03 146.992 122.144 146.495 122.37 146.069C122.597 145.642 122.914 145.315 123.32 145.089C123.734 144.855 124.207 144.739 124.74 144.739C125.26 144.739 125.72 144.852 126.12 145.079C126.52 145.305 126.827 145.619 127.04 146.019C127.26 146.412 127.37 146.859 127.37 147.359ZM126.43 147.169C126.43 146.822 126.354 146.525 126.2 146.279C126.047 146.025 125.837 145.835 125.57 145.709C125.31 145.575 125.02 145.509 124.7 145.509C124.24 145.509 123.847 145.655 123.52 145.949C123.2 146.242 123.017 146.649 122.97 147.169H126.43ZM135.957 144.829L132.657 152.889H131.717L132.797 150.249L130.587 144.829H131.597L133.317 149.269L135.017 144.829H135.957ZM139.262 150.399C138.749 150.399 138.282 150.282 137.862 150.049C137.449 149.815 137.122 149.485 136.882 149.059C136.649 148.625 136.532 148.125 136.532 147.559C136.532 146.999 136.652 146.505 136.892 146.079C137.139 145.645 137.472 145.315 137.892 145.089C138.312 144.855 138.782 144.739 139.302 144.739C139.822 144.739 140.292 144.855 140.712 145.089C141.132 145.315 141.462 145.642 141.702 146.069C141.949 146.495 142.072 146.992 142.072 147.559C142.072 148.125 141.945 148.625 141.692 149.059C141.445 149.485 141.109 149.815 140.682 150.049C140.255 150.282 139.782 150.399 139.262 150.399ZM139.262 149.599C139.589 149.599 139.895 149.522 140.182 149.369C140.469 149.215 140.699 148.985 140.872 148.679C141.052 148.372 141.142 147.999 141.142 147.559C141.142 147.119 141.055 146.745 140.882 146.439C140.709 146.132 140.482 145.905 140.202 145.759C139.922 145.605 139.619 145.529 139.292 145.529C138.959 145.529 138.652 145.605 138.372 145.759C138.099 145.905 137.879 146.132 137.712 146.439C137.545 146.745 137.462 147.119 137.462 147.559C137.462 148.005 137.542 148.382 137.702 148.689C137.869 148.995 138.089 149.225 138.362 149.379C138.635 149.525 138.935 149.599 139.262 149.599ZM148.129 144.829V150.309H147.219V149.499C147.045 149.779 146.802 149.999 146.489 150.159C146.182 150.312 145.842 150.389 145.469 150.389C145.042 150.389 144.659 150.302 144.319 150.129C143.979 149.949 143.709 149.682 143.509 149.329C143.315 148.975 143.219 148.545 143.219 148.039V144.829H144.119V147.919C144.119 148.459 144.255 148.875 144.529 149.169C144.802 149.455 145.175 149.599 145.649 149.599C146.135 149.599 146.519 149.449 146.799 149.149C147.079 148.849 147.219 148.412 147.219 147.839V144.829H148.129ZM150.575 145.719C150.735 145.405 150.962 145.162 151.255 144.989C151.555 144.815 151.918 144.729 152.345 144.729V145.669H152.105C151.085 145.669 150.575 146.222 150.575 147.329V150.309H149.665V144.829H150.575V145.719ZM161.342 145.359C161.148 144.952 160.868 144.639 160.502 144.419C160.135 144.192 159.708 144.079 159.222 144.079C158.735 144.079 158.295 144.192 157.902 144.419C157.515 144.639 157.208 144.959 156.982 145.379C156.762 145.792 156.652 146.272 156.652 146.819C156.652 147.365 156.762 147.845 156.982 148.259C157.208 148.672 157.515 148.992 157.902 149.219C158.295 149.439 158.735 149.549 159.222 149.549C159.902 149.549 160.462 149.345 160.902 148.939C161.342 148.532 161.598 147.982 161.672 147.289H158.892V146.549H162.642V147.249C162.588 147.822 162.408 148.349 162.102 148.829C161.795 149.302 161.392 149.679 160.892 149.959C160.392 150.232 159.835 150.369 159.222 150.369C158.575 150.369 157.985 150.219 157.452 149.919C156.918 149.612 156.495 149.189 156.182 148.649C155.875 148.109 155.722 147.499 155.722 146.819C155.722 146.139 155.875 145.529 156.182 144.989C156.495 144.442 156.918 144.019 157.452 143.719C157.985 143.412 158.575 143.259 159.222 143.259C159.962 143.259 160.615 143.442 161.182 143.809C161.755 144.175 162.172 144.692 162.432 145.359H161.342ZM168.505 145.379C168.505 145.959 168.305 146.442 167.905 146.829C167.511 147.209 166.908 147.399 166.095 147.399H164.755V150.309H163.845V143.339H166.095C166.881 143.339 167.478 143.529 167.885 143.909C168.298 144.289 168.505 144.779 168.505 145.379ZM166.095 146.649C166.601 146.649 166.975 146.539 167.215 146.319C167.455 146.099 167.575 145.785 167.575 145.379C167.575 144.519 167.081 144.089 166.095 144.089H164.755V146.649H166.095ZM173.926 143.339V144.079H172.026V150.309H171.116V144.079H169.206V143.339H173.926Z" fill="#14171B"/>
<rect x="93.001" y="187.168" width="314" height="30" rx="8" fill="#F2F2F2"/>
<path opacity="0.4" d="M101.963 204.118H98.9228L98.3628 205.668H97.4028L99.9228 198.738H100.973L103.483 205.668H102.523L101.963 204.118ZM101.703 203.378L100.443 199.858L99.1828 203.378H101.703ZM104.241 202.908C104.241 202.348 104.354 201.858 104.581 201.438C104.808 201.011 105.118 200.681 105.511 200.448C105.911 200.215 106.358 200.098 106.851 200.098C107.278 200.098 107.674 200.198 108.041 200.398C108.408 200.591 108.688 200.848 108.881 201.168V198.268H109.801V205.668H108.881V204.638C108.701 204.965 108.434 205.235 108.081 205.448C107.728 205.655 107.314 205.758 106.841 205.758C106.354 205.758 105.911 205.638 105.511 205.398C105.118 205.158 104.808 204.821 104.581 204.388C104.354 203.955 104.241 203.461 104.241 202.908ZM108.881 202.918C108.881 202.505 108.798 202.145 108.631 201.838C108.464 201.531 108.238 201.298 107.951 201.138C107.671 200.971 107.361 200.888 107.021 200.888C106.681 200.888 106.371 200.968 106.091 201.128C105.811 201.288 105.588 201.521 105.421 201.828C105.254 202.135 105.171 202.495 105.171 202.908C105.171 203.328 105.254 203.695 105.421 204.008C105.588 204.315 105.811 204.551 106.091 204.718C106.371 204.878 106.681 204.958 107.021 204.958C107.361 204.958 107.671 204.878 107.951 204.718C108.238 204.551 108.464 204.315 108.631 204.008C108.798 203.695 108.881 203.331 108.881 202.918ZM110.999 202.908C110.999 202.348 111.112 201.858 111.339 201.438C111.566 201.011 111.876 200.681 112.269 200.448C112.669 200.215 113.116 200.098 113.609 200.098C114.036 200.098 114.432 200.198 114.799 200.398C115.166 200.591 115.446 200.848 115.639 201.168V198.268H116.559V205.668H115.639V204.638C115.459 204.965 115.192 205.235 114.839 205.448C114.486 205.655 114.072 205.758 113.599 205.758C113.112 205.758 112.669 205.638 112.269 205.398C111.876 205.158 111.566 204.821 111.339 204.388C111.112 203.955 110.999 203.461 110.999 202.908ZM115.639 202.918C115.639 202.505 115.556 202.145 115.389 201.838C115.222 201.531 114.996 201.298 114.709 201.138C114.429 200.971 114.119 200.888 113.779 200.888C113.439 200.888 113.129 200.968 112.849 201.128C112.569 201.288 112.346 201.521 112.179 201.828C112.012 202.135 111.929 202.495 111.929 202.908C111.929 203.328 112.012 203.695 112.179 204.008C112.346 204.315 112.569 204.551 112.849 204.718C113.129 204.878 113.439 204.958 113.779 204.958C114.119 204.958 114.429 204.878 114.709 204.718C114.996 204.551 115.222 204.315 115.389 204.008C115.556 203.695 115.639 203.331 115.639 202.918ZM120.423 202.908C120.423 202.348 120.536 201.858 120.763 201.438C120.989 201.011 121.299 200.681 121.693 200.448C122.093 200.215 122.536 200.098 123.023 200.098C123.503 200.098 123.919 200.201 124.273 200.408C124.626 200.615 124.889 200.875 125.063 201.188V200.188H125.983V205.668H125.063V204.648C124.883 204.968 124.613 205.235 124.253 205.448C123.899 205.655 123.486 205.758 123.013 205.758C122.526 205.758 122.086 205.638 121.693 205.398C121.299 205.158 120.989 204.821 120.763 204.388C120.536 203.955 120.423 203.461 120.423 202.908ZM125.063 202.918C125.063 202.505 124.979 202.145 124.813 201.838C124.646 201.531 124.419 201.298 124.133 201.138C123.853 200.971 123.543 200.888 123.203 200.888C122.863 200.888 122.553 200.968 122.273 201.128C121.993 201.288 121.769 201.521 121.603 201.828C121.436 202.135 121.353 202.495 121.353 202.908C121.353 203.328 121.436 203.695 121.603 204.008C121.769 204.315 121.993 204.551 122.273 204.718C122.553 204.878 122.863 204.958 123.203 204.958C123.543 204.958 123.853 204.878 124.133 204.718C124.419 204.551 124.646 204.315 124.813 204.008C124.979 203.695 125.063 203.331 125.063 202.918ZM132.127 205.758C131.707 205.758 131.33 205.688 130.997 205.548C130.663 205.401 130.4 205.201 130.207 204.948C130.013 204.688 129.907 204.391 129.887 204.058H130.827C130.853 204.331 130.98 204.555 131.207 204.728C131.44 204.901 131.743 204.988 132.117 204.988C132.463 204.988 132.737 204.911 132.937 204.758C133.137 204.605 133.237 204.411 133.237 204.178C133.237 203.938 133.13 203.761 132.917 203.648C132.703 203.528 132.373 203.411 131.927 203.298C131.52 203.191 131.187 203.085 130.927 202.978C130.673 202.865 130.453 202.701 130.267 202.488C130.087 202.268 129.997 201.981 129.997 201.628C129.997 201.348 130.08 201.091 130.247 200.858C130.413 200.625 130.65 200.441 130.957 200.308C131.263 200.168 131.613 200.098 132.007 200.098C132.613 200.098 133.103 200.251 133.477 200.558C133.85 200.865 134.05 201.285 134.077 201.818H133.167C133.147 201.531 133.03 201.301 132.817 201.128C132.61 200.955 132.33 200.868 131.977 200.868C131.65 200.868 131.39 200.938 131.197 201.078C131.003 201.218 130.907 201.401 130.907 201.628C130.907 201.808 130.963 201.958 131.077 202.078C131.197 202.191 131.343 202.285 131.517 202.358C131.697 202.425 131.943 202.501 132.257 202.588C132.65 202.695 132.97 202.801 133.217 202.908C133.463 203.008 133.673 203.161 133.847 203.368C134.027 203.575 134.12 203.845 134.127 204.178C134.127 204.478 134.043 204.748 133.877 204.988C133.71 205.228 133.473 205.418 133.167 205.558C132.867 205.691 132.52 205.758 132.127 205.758ZM138.131 200.088C138.545 200.088 138.918 200.178 139.251 200.358C139.585 200.531 139.845 200.795 140.031 201.148C140.225 201.501 140.321 201.931 140.321 202.438V205.668H139.421V202.568C139.421 202.021 139.285 201.605 139.011 201.318C138.738 201.025 138.365 200.878 137.891 200.878C137.411 200.878 137.028 201.028 136.741 201.328C136.461 201.628 136.321 202.065 136.321 202.638V205.668H135.411V198.268H136.321V200.968C136.501 200.688 136.748 200.471 137.061 200.318C137.381 200.165 137.738 200.088 138.131 200.088ZM144.198 205.758C143.684 205.758 143.218 205.641 142.798 205.408C142.384 205.175 142.058 204.845 141.818 204.418C141.584 203.985 141.468 203.485 141.468 202.918C141.468 202.358 141.588 201.865 141.828 201.438C142.074 201.005 142.408 200.675 142.828 200.448C143.248 200.215 143.718 200.098 144.238 200.098C144.758 200.098 145.228 200.215 145.648 200.448C146.068 200.675 146.398 201.001 146.638 201.428C146.884 201.855 147.008 202.351 147.008 202.918C147.008 203.485 146.881 203.985 146.628 204.418C146.381 204.845 146.044 205.175 145.618 205.408C145.191 205.641 144.718 205.758 144.198 205.758ZM144.198 204.958C144.524 204.958 144.831 204.881 145.118 204.728C145.404 204.575 145.634 204.345 145.808 204.038C145.988 203.731 146.078 203.358 146.078 202.918C146.078 202.478 145.991 202.105 145.818 201.798C145.644 201.491 145.418 201.265 145.138 201.118C144.858 200.965 144.554 200.888 144.228 200.888C143.894 200.888 143.588 200.965 143.308 201.118C143.034 201.265 142.814 201.491 142.648 201.798C142.481 202.105 142.398 202.478 142.398 202.918C142.398 203.365 142.478 203.741 142.638 204.048C142.804 204.355 143.024 204.585 143.298 204.738C143.571 204.885 143.871 204.958 144.198 204.958ZM149.114 201.078C149.274 200.765 149.501 200.521 149.794 200.348C150.094 200.175 150.457 200.088 150.884 200.088V201.028H150.644C149.624 201.028 149.114 201.581 149.114 202.688V205.668H148.204V200.188H149.114V201.078ZM153.045 200.938V204.168C153.045 204.435 153.101 204.625 153.215 204.738C153.328 204.845 153.525 204.898 153.805 204.898H154.475V205.668H153.655C153.148 205.668 152.768 205.551 152.515 205.318C152.261 205.085 152.135 204.701 152.135 204.168V200.938H151.425V200.188H152.135V198.808H153.045V200.188H154.475V200.938H153.045ZM157.903 202.908C157.903 202.348 158.017 201.858 158.243 201.438C158.47 201.011 158.78 200.681 159.173 200.448C159.573 200.215 160.02 200.098 160.513 200.098C160.94 200.098 161.337 200.198 161.703 200.398C162.07 200.591 162.35 200.848 162.543 201.168V198.268H163.463V205.668H162.543V204.638C162.363 204.965 162.097 205.235 161.743 205.448C161.39 205.655 160.977 205.758 160.503 205.758C160.017 205.758 159.573 205.638 159.173 205.398C158.78 205.158 158.47 204.821 158.243 204.388C158.017 203.955 157.903 203.461 157.903 202.908ZM162.543 202.918C162.543 202.505 162.46 202.145 162.293 201.838C162.127 201.531 161.9 201.298 161.613 201.138C161.333 200.971 161.023 200.888 160.683 200.888C160.343 200.888 160.033 200.968 159.753 201.128C159.473 201.288 159.25 201.521 159.083 201.828C158.917 202.135 158.833 202.495 158.833 202.908C158.833 203.328 158.917 203.695 159.083 204.008C159.25 204.315 159.473 204.551 159.753 204.718C160.033 204.878 160.343 204.958 160.683 204.958C161.023 204.958 161.333 204.878 161.613 204.718C161.9 204.551 162.127 204.315 162.293 204.008C162.46 203.695 162.543 203.331 162.543 202.918ZM170.001 202.718C170.001 202.891 169.991 203.075 169.971 203.268H165.591C165.624 203.808 165.808 204.231 166.141 204.538C166.481 204.838 166.891 204.988 167.371 204.988C167.764 204.988 168.091 204.898 168.351 204.718C168.618 204.531 168.804 204.285 168.911 203.978H169.891C169.744 204.505 169.451 204.935 169.011 205.268C168.571 205.595 168.024 205.758 167.371 205.758C166.851 205.758 166.384 205.641 165.971 205.408C165.564 205.175 165.244 204.845 165.011 204.418C164.778 203.985 164.661 203.485 164.661 202.918C164.661 202.351 164.774 201.855 165.001 201.428C165.228 201.001 165.544 200.675 165.951 200.448C166.364 200.215 166.838 200.098 167.371 200.098C167.891 200.098 168.351 200.211 168.751 200.438C169.151 200.665 169.458 200.978 169.671 201.378C169.891 201.771 170.001 202.218 170.001 202.718ZM169.061 202.528C169.061 202.181 168.984 201.885 168.831 201.638C168.678 201.385 168.468 201.195 168.201 201.068C167.941 200.935 167.651 200.868 167.331 200.868C166.871 200.868 166.478 201.015 166.151 201.308C165.831 201.601 165.648 202.008 165.601 202.528H169.061ZM173.142 205.758C172.722 205.758 172.346 205.688 172.012 205.548C171.679 205.401 171.416 205.201 171.222 204.948C171.029 204.688 170.922 204.391 170.902 204.058H171.842C171.869 204.331 171.996 204.555 172.222 204.728C172.456 204.901 172.759 204.988 173.132 204.988C173.479 204.988 173.752 204.911 173.952 204.758C174.152 204.605 174.252 204.411 174.252 204.178C174.252 203.938 174.146 203.761 173.932 203.648C173.719 203.528 173.389 203.411 172.942 203.298C172.536 203.191 172.202 203.085 171.942 202.978C171.689 202.865 171.469 202.701 171.282 202.488C171.102 202.268 171.012 201.981 171.012 201.628C171.012 201.348 171.096 201.091 171.262 200.858C171.429 200.625 171.666 200.441 171.972 200.308C172.279 200.168 172.629 200.098 173.022 200.098C173.629 200.098 174.119 200.251 174.492 200.558C174.866 200.865 175.066 201.285 175.092 201.818H174.182C174.162 201.531 174.046 201.301 173.832 201.128C173.626 200.955 173.346 200.868 172.992 200.868C172.666 200.868 172.406 200.938 172.212 201.078C172.019 201.218 171.922 201.401 171.922 201.628C171.922 201.808 171.979 201.958 172.092 202.078C172.212 202.191 172.359 202.285 172.532 202.358C172.712 202.425 172.959 202.501 173.272 202.588C173.666 202.695 173.986 202.801 174.232 202.908C174.479 203.008 174.689 203.161 174.862 203.368C175.042 203.575 175.136 203.845 175.142 204.178C175.142 204.478 175.059 204.748 174.892 204.988C174.726 205.228 174.489 205.418 174.182 205.558C173.882 205.691 173.536 205.758 173.142 205.758ZM176.087 202.918C176.087 202.351 176.2 201.858 176.427 201.438C176.653 201.011 176.967 200.681 177.367 200.448C177.773 200.215 178.237 200.098 178.757 200.098C179.43 200.098 179.983 200.261 180.417 200.588C180.857 200.915 181.147 201.368 181.287 201.948H180.307C180.213 201.615 180.03 201.351 179.757 201.158C179.49 200.965 179.157 200.868 178.757 200.868C178.237 200.868 177.817 201.048 177.497 201.408C177.177 201.761 177.017 202.265 177.017 202.918C177.017 203.578 177.177 204.088 177.497 204.448C177.817 204.808 178.237 204.988 178.757 204.988C179.157 204.988 179.49 204.895 179.757 204.708C180.023 204.521 180.207 204.255 180.307 203.908H181.287C181.14 204.468 180.847 204.918 180.407 205.258C179.967 205.591 179.417 205.758 178.757 205.758C178.237 205.758 177.773 205.641 177.367 205.408C176.967 205.175 176.653 204.845 176.427 204.418C176.2 203.991 176.087 203.491 176.087 202.918ZM183.411 201.078C183.571 200.765 183.798 200.521 184.091 200.348C184.391 200.175 184.754 200.088 185.181 200.088V201.028H184.941C183.921 201.028 183.411 201.581 183.411 202.688V205.668H182.501V200.188H183.411V201.078ZM186.702 199.298C186.528 199.298 186.382 199.238 186.262 199.118C186.142 198.998 186.082 198.851 186.082 198.678C186.082 198.505 186.142 198.358 186.262 198.238C186.382 198.118 186.528 198.058 186.702 198.058C186.868 198.058 187.008 198.118 187.122 198.238C187.242 198.358 187.302 198.505 187.302 198.678C187.302 198.851 187.242 198.998 187.122 199.118C187.008 199.238 186.868 199.298 186.702 199.298ZM187.142 200.188V205.668H186.232V200.188H187.142ZM189.602 201.198C189.782 200.885 190.049 200.625 190.402 200.418C190.762 200.205 191.179 200.098 191.652 200.098C192.139 200.098 192.579 200.215 192.972 200.448C193.372 200.681 193.686 201.011 193.912 201.438C194.139 201.858 194.252 202.348 194.252 202.908C194.252 203.461 194.139 203.955 193.912 204.388C193.686 204.821 193.372 205.158 192.972 205.398C192.579 205.638 192.139 205.758 191.652 205.758C191.186 205.758 190.772 205.655 190.412 205.448C190.059 205.235 189.789 204.971 189.602 204.658V208.268H188.692V200.188H189.602V201.198ZM193.322 202.908C193.322 202.495 193.239 202.135 193.072 201.828C192.906 201.521 192.679 201.288 192.392 201.128C192.112 200.968 191.802 200.888 191.462 200.888C191.129 200.888 190.819 200.971 190.532 201.138C190.252 201.298 190.026 201.535 189.852 201.848C189.686 202.155 189.602 202.511 189.602 202.918C189.602 203.331 189.686 203.695 189.852 204.008C190.026 204.315 190.252 204.551 190.532 204.718C190.819 204.878 191.129 204.958 191.462 204.958C191.802 204.958 192.112 204.878 192.392 204.718C192.679 204.551 192.906 204.315 193.072 204.008C193.239 203.695 193.322 203.328 193.322 202.908ZM196.56 200.938V204.168C196.56 204.435 196.617 204.625 196.73 204.738C196.844 204.845 197.04 204.898 197.32 204.898H197.99V205.668H197.17C196.664 205.668 196.284 205.551 196.03 205.318C195.777 205.085 195.65 204.701 195.65 204.168V200.938H194.94V200.188H195.65V198.808H196.56V200.188H197.99V200.938H196.56ZM199.563 199.298C199.389 199.298 199.243 199.238 199.123 199.118C199.003 198.998 198.943 198.851 198.943 198.678C198.943 198.505 199.003 198.358 199.123 198.238C199.243 198.118 199.389 198.058 199.563 198.058C199.729 198.058 199.869 198.118 199.983 198.238C200.103 198.358 200.163 198.505 200.163 198.678C200.163 198.851 200.103 198.998 199.983 199.118C199.869 199.238 199.729 199.298 199.563 199.298ZM200.003 200.188V205.668H199.093V200.188H200.003ZM203.944 205.758C203.43 205.758 202.964 205.641 202.544 205.408C202.13 205.175 201.804 204.845 201.564 204.418C201.33 203.985 201.214 203.485 201.214 202.918C201.214 202.358 201.334 201.865 201.574 201.438C201.82 201.005 202.154 200.675 202.574 200.448C202.994 200.215 203.464 200.098 203.984 200.098C204.504 200.098 204.974 200.215 205.394 200.448C205.814 200.675 206.144 201.001 206.384 201.428C206.63 201.855 206.754 202.351 206.754 202.918C206.754 203.485 206.627 203.985 206.374 204.418C206.127 204.845 205.79 205.175 205.364 205.408C204.937 205.641 204.464 205.758 203.944 205.758ZM203.944 204.958C204.27 204.958 204.577 204.881 204.864 204.728C205.15 204.575 205.38 204.345 205.554 204.038C205.734 203.731 205.824 203.358 205.824 202.918C205.824 202.478 205.737 202.105 205.564 201.798C205.39 201.491 205.164 201.265 204.884 201.118C204.604 200.965 204.3 200.888 203.974 200.888C203.64 200.888 203.334 200.965 203.054 201.118C202.78 201.265 202.56 201.491 202.394 201.798C202.227 202.105 202.144 202.478 202.144 202.918C202.144 203.365 202.224 203.741 202.384 204.048C202.55 204.355 202.77 204.585 203.044 204.738C203.317 204.885 203.617 204.958 203.944 204.958ZM210.62 200.088C211.287 200.088 211.827 200.291 212.24 200.698C212.654 201.098 212.86 201.678 212.86 202.438V205.668H211.96V202.568C211.96 202.021 211.824 201.605 211.55 201.318C211.277 201.025 210.904 200.878 210.43 200.878C209.95 200.878 209.567 201.028 209.28 201.328C209 201.628 208.86 202.065 208.86 202.638V205.668H207.95V200.188H208.86V200.968C209.04 200.688 209.284 200.471 209.59 200.318C209.904 200.165 210.247 200.088 210.62 200.088ZM216.673 202.908C216.673 202.348 216.786 201.858 217.013 201.438C217.239 201.011 217.549 200.681 217.943 200.448C218.343 200.215 218.786 200.098 219.273 200.098C219.753 200.098 220.169 200.201 220.523 200.408C220.876 200.615 221.139 200.875 221.313 201.188V200.188H222.233V205.668H221.313V204.648C221.133 204.968 220.863 205.235 220.503 205.448C220.149 205.655 219.736 205.758 219.263 205.758C218.776 205.758 218.336 205.638 217.943 205.398C217.549 205.158 217.239 204.821 217.013 204.388C216.786 203.955 216.673 203.461 216.673 202.908ZM221.313 202.918C221.313 202.505 221.229 202.145 221.063 201.838C220.896 201.531 220.669 201.298 220.383 201.138C220.103 200.971 219.793 200.888 219.453 200.888C219.113 200.888 218.803 200.968 218.523 201.128C218.243 201.288 218.019 201.521 217.853 201.828C217.686 202.135 217.603 202.495 217.603 202.908C217.603 203.328 217.686 203.695 217.853 204.008C218.019 204.315 218.243 204.551 218.523 204.718C218.803 204.878 219.113 204.958 219.453 204.958C219.793 204.958 220.103 204.878 220.383 204.718C220.669 204.551 220.896 204.315 221.063 204.008C221.229 203.695 221.313 203.331 221.313 202.918ZM224.681 201.208C224.867 200.881 225.141 200.615 225.501 200.408C225.861 200.201 226.271 200.098 226.731 200.098C227.224 200.098 227.667 200.215 228.061 200.448C228.454 200.681 228.764 201.011 228.991 201.438C229.217 201.858 229.331 202.348 229.331 202.908C229.331 203.461 229.217 203.955 228.991 204.388C228.764 204.821 228.451 205.158 228.051 205.398C227.657 205.638 227.217 205.758 226.731 205.758C226.257 205.758 225.841 205.655 225.481 205.448C225.127 205.241 224.861 204.978 224.681 204.658V205.668H223.771V198.268H224.681V201.208ZM228.401 202.908C228.401 202.495 228.317 202.135 228.151 201.828C227.984 201.521 227.757 201.288 227.471 201.128C227.191 200.968 226.881 200.888 226.541 200.888C226.207 200.888 225.897 200.971 225.611 201.138C225.331 201.298 225.104 201.535 224.931 201.848C224.764 202.155 224.681 202.511 224.681 202.918C224.681 203.331 224.764 203.695 224.931 204.008C225.104 204.315 225.331 204.551 225.611 204.718C225.897 204.878 226.207 204.958 226.541 204.958C226.881 204.958 227.191 204.878 227.471 204.718C227.757 204.551 227.984 204.315 228.151 204.008C228.317 203.695 228.401 203.328 228.401 202.908ZM232.918 205.758C232.405 205.758 231.938 205.641 231.518 205.408C231.105 205.175 230.778 204.845 230.538 204.418C230.305 203.985 230.188 203.485 230.188 202.918C230.188 202.358 230.308 201.865 230.548 201.438C230.795 201.005 231.128 200.675 231.548 200.448C231.968 200.215 232.438 200.098 232.958 200.098C233.478 200.098 233.948 200.215 234.368 200.448C234.788 200.675 235.118 201.001 235.358 201.428C235.605 201.855 235.728 202.351 235.728 202.918C235.728 203.485 235.602 203.985 235.348 204.418C235.102 204.845 234.765 205.175 234.338 205.408C233.912 205.641 233.438 205.758 232.918 205.758ZM232.918 204.958C233.245 204.958 233.552 204.881 233.838 204.728C234.125 204.575 234.355 204.345 234.528 204.038C234.708 203.731 234.798 203.358 234.798 202.918C234.798 202.478 234.712 202.105 234.538 201.798C234.365 201.491 234.138 201.265 233.858 201.118C233.578 200.965 233.275 200.888 232.948 200.888C232.615 200.888 232.308 200.965 232.028 201.118C231.755 201.265 231.535 201.491 231.368 201.798C231.202 202.105 231.118 202.478 231.118 202.918C231.118 203.365 231.198 203.741 231.358 204.048C231.525 204.355 231.745 204.585 232.018 204.738C232.292 204.885 232.592 204.958 232.918 204.958ZM241.785 200.188V205.668H240.875V204.858C240.702 205.138 240.458 205.358 240.145 205.518C239.838 205.671 239.498 205.748 239.125 205.748C238.698 205.748 238.315 205.661 237.975 205.488C237.635 205.308 237.365 205.041 237.165 204.688C236.972 204.335 236.875 203.905 236.875 203.398V200.188H237.775V203.278C237.775 203.818 237.912 204.235 238.185 204.528C238.458 204.815 238.832 204.958 239.305 204.958C239.792 204.958 240.175 204.808 240.455 204.508C240.735 204.208 240.875 203.771 240.875 203.198V200.188H241.785ZM244.431 200.938V204.168C244.431 204.435 244.488 204.625 244.601 204.738C244.715 204.845 244.911 204.898 245.191 204.898H245.861V205.668H245.041C244.535 205.668 244.155 205.551 243.901 205.318C243.648 205.085 243.521 204.701 243.521 204.168V200.938H242.811V200.188H243.521V198.808H244.431V200.188H245.861V200.938H244.431ZM256.93 200.188L255.22 205.668H254.28L252.96 201.318L251.64 205.668H250.7L248.98 200.188H249.91L251.17 204.788L252.53 200.188H253.46L254.79 204.798L256.03 200.188H256.93ZM260.553 200.088C260.966 200.088 261.34 200.178 261.673 200.358C262.006 200.531 262.266 200.795 262.453 201.148C262.646 201.501 262.743 201.931 262.743 202.438V205.668H261.843V202.568C261.843 202.021 261.706 201.605 261.433 201.318C261.16 201.025 260.786 200.878 260.313 200.878C259.833 200.878 259.45 201.028 259.163 201.328C258.883 201.628 258.743 202.065 258.743 202.638V205.668H257.833V198.268H258.743V200.968C258.923 200.688 259.17 200.471 259.483 200.318C259.803 200.165 260.16 200.088 260.553 200.088ZM263.89 202.908C263.89 202.348 264.003 201.858 264.23 201.438C264.456 201.011 264.766 200.681 265.16 200.448C265.56 200.215 266.003 200.098 266.49 200.098C266.97 200.098 267.386 200.201 267.74 200.408C268.093 200.615 268.356 200.875 268.53 201.188V200.188H269.45V205.668H268.53V204.648C268.35 204.968 268.08 205.235 267.72 205.448C267.366 205.655 266.953 205.758 266.48 205.758C265.993 205.758 265.553 205.638 265.16 205.398C264.766 205.158 264.456 204.821 264.23 204.388C264.003 203.955 263.89 203.461 263.89 202.908ZM268.53 202.918C268.53 202.505 268.446 202.145 268.28 201.838C268.113 201.531 267.886 201.298 267.6 201.138C267.32 200.971 267.01 200.888 266.67 200.888C266.33 200.888 266.02 200.968 265.74 201.128C265.46 201.288 265.236 201.521 265.07 201.828C264.903 202.135 264.82 202.495 264.82 202.908C264.82 203.328 264.903 203.695 265.07 204.008C265.236 204.315 265.46 204.551 265.74 204.718C266.02 204.878 266.33 204.958 266.67 204.958C267.01 204.958 267.32 204.878 267.6 204.718C267.886 204.551 268.113 204.315 268.28 204.008C268.446 203.695 268.53 203.331 268.53 202.918ZM272.097 200.938V204.168C272.097 204.435 272.154 204.625 272.267 204.738C272.381 204.845 272.577 204.898 272.857 204.898H273.527V205.668H272.707C272.201 205.668 271.821 205.551 271.567 205.318C271.314 205.085 271.187 204.701 271.187 204.168V200.938H270.477V200.188H271.187V198.808H272.097V200.188H273.527V200.938H272.097ZM278.406 200.938V204.168C278.406 204.435 278.463 204.625 278.576 204.738C278.689 204.845 278.886 204.898 279.166 204.898H279.836V205.668H279.016C278.509 205.668 278.129 205.551 277.876 205.318C277.623 205.085 277.496 204.701 277.496 204.168V200.938H276.786V200.188H277.496V198.808H278.406V200.188H279.836V200.938H278.406ZM283.659 200.088C284.072 200.088 284.445 200.178 284.779 200.358C285.112 200.531 285.372 200.795 285.559 201.148C285.752 201.501 285.849 201.931 285.849 202.438V205.668H284.949V202.568C284.949 202.021 284.812 201.605 284.539 201.318C284.265 201.025 283.892 200.878 283.419 200.878C282.939 200.878 282.555 201.028 282.269 201.328C281.989 201.628 281.849 202.065 281.849 202.638V205.668H280.939V198.268H281.849V200.968C282.029 200.688 282.275 200.471 282.589 200.318C282.909 200.165 283.265 200.088 283.659 200.088ZM287.805 199.298C287.632 199.298 287.485 199.238 287.365 199.118C287.245 198.998 287.185 198.851 287.185 198.678C287.185 198.505 287.245 198.358 287.365 198.238C287.485 198.118 287.632 198.058 287.805 198.058C287.972 198.058 288.112 198.118 288.225 198.238C288.345 198.358 288.405 198.505 288.405 198.678C288.405 198.851 288.345 198.998 288.225 199.118C288.112 199.238 287.972 199.298 287.805 199.298ZM288.245 200.188V205.668H287.335V200.188H288.245ZM291.736 205.758C291.316 205.758 290.939 205.688 290.606 205.548C290.273 205.401 290.009 205.201 289.816 204.948C289.623 204.688 289.516 204.391 289.496 204.058H290.436C290.463 204.331 290.589 204.555 290.816 204.728C291.049 204.901 291.353 204.988 291.726 204.988C292.073 204.988 292.346 204.911 292.546 204.758C292.746 204.605 292.846 204.411 292.846 204.178C292.846 203.938 292.739 203.761 292.526 203.648C292.313 203.528 291.983 203.411 291.536 203.298C291.129 203.191 290.796 203.085 290.536 202.978C290.283 202.865 290.063 202.701 289.876 202.488C289.696 202.268 289.606 201.981 289.606 201.628C289.606 201.348 289.689 201.091 289.856 200.858C290.023 200.625 290.259 200.441 290.566 200.308C290.873 200.168 291.223 200.098 291.616 200.098C292.223 200.098 292.713 200.251 293.086 200.558C293.459 200.865 293.659 201.285 293.686 201.818H292.776C292.756 201.531 292.639 201.301 292.426 201.128C292.219 200.955 291.939 200.868 291.586 200.868C291.259 200.868 290.999 200.938 290.806 201.078C290.613 201.218 290.516 201.401 290.516 201.628C290.516 201.808 290.573 201.958 290.686 202.078C290.806 202.191 290.953 202.285 291.126 202.358C291.306 202.425 291.553 202.501 291.866 202.588C292.259 202.695 292.579 202.801 292.826 202.908C293.073 203.008 293.283 203.161 293.456 203.368C293.636 203.575 293.729 203.845 293.736 204.178C293.736 204.478 293.653 204.748 293.486 204.988C293.319 205.228 293.083 205.418 292.776 205.558C292.476 205.691 292.129 205.758 291.736 205.758ZM302.967 200.718C302.773 200.311 302.493 199.998 302.127 199.778C301.76 199.551 301.333 199.438 300.847 199.438C300.36 199.438 299.92 199.551 299.527 199.778C299.14 199.998 298.833 200.318 298.607 200.738C298.387 201.151 298.277 201.631 298.277 202.178C298.277 202.725 298.387 203.205 298.607 203.618C298.833 204.031 299.14 204.351 299.527 204.578C299.92 204.798 300.36 204.908 300.847 204.908C301.527 204.908 302.087 204.705 302.527 204.298C302.967 203.891 303.223 203.341 303.297 202.648H300.517V201.908H304.267V202.608C304.213 203.181 304.033 203.708 303.727 204.188C303.42 204.661 303.017 205.038 302.517 205.318C302.017 205.591 301.46 205.728 300.847 205.728C300.2 205.728 299.61 205.578 299.077 205.278C298.543 204.971 298.12 204.548 297.807 204.008C297.5 203.468 297.347 202.858 297.347 202.178C297.347 201.498 297.5 200.888 297.807 200.348C298.12 199.801 298.543 199.378 299.077 199.078C299.61 198.771 300.2 198.618 300.847 198.618C301.587 198.618 302.24 198.801 302.807 199.168C303.38 199.535 303.797 200.051 304.057 200.718H302.967ZM310.13 200.738C310.13 201.318 309.93 201.801 309.53 202.188C309.136 202.568 308.533 202.758 307.72 202.758H306.38V205.668H305.47V198.698H307.72C308.506 198.698 309.103 198.888 309.51 199.268C309.923 199.648 310.13 200.138 310.13 200.738ZM307.72 202.008C308.226 202.008 308.6 201.898 308.84 201.678C309.08 201.458 309.2 201.145 309.2 200.738C309.2 199.878 308.706 199.448 307.72 199.448H306.38V202.008H307.72ZM315.551 198.698V199.438H313.651V205.668H312.741V199.438H310.831V198.698H315.551ZM318.997 202.908C318.997 202.348 319.11 201.858 319.337 201.438C319.564 201.011 319.874 200.681 320.267 200.448C320.667 200.215 321.114 200.098 321.607 200.098C322.034 200.098 322.43 200.198 322.797 200.398C323.164 200.591 323.444 200.848 323.637 201.168V198.268H324.557V205.668H323.637V204.638C323.457 204.965 323.19 205.235 322.837 205.448C322.484 205.655 322.07 205.758 321.597 205.758C321.11 205.758 320.667 205.638 320.267 205.398C319.874 205.158 319.564 204.821 319.337 204.388C319.11 203.955 318.997 203.461 318.997 202.908ZM323.637 202.918C323.637 202.505 323.554 202.145 323.387 201.838C323.22 201.531 322.994 201.298 322.707 201.138C322.427 200.971 322.117 200.888 321.777 200.888C321.437 200.888 321.127 200.968 320.847 201.128C320.567 201.288 320.344 201.521 320.177 201.828C320.01 202.135 319.927 202.495 319.927 202.908C319.927 203.328 320.01 203.695 320.177 204.008C320.344 204.315 320.567 204.551 320.847 204.718C321.127 204.878 321.437 204.958 321.777 204.958C322.117 204.958 322.427 204.878 322.707 204.718C322.994 204.551 323.22 204.315 323.387 204.008C323.554 203.695 323.637 203.331 323.637 202.918ZM328.485 205.758C327.971 205.758 327.505 205.641 327.085 205.408C326.671 205.175 326.345 204.845 326.105 204.418C325.871 203.985 325.755 203.485 325.755 202.918C325.755 202.358 325.875 201.865 326.115 201.438C326.361 201.005 326.695 200.675 327.115 200.448C327.535 200.215 328.005 200.098 328.525 200.098C329.045 200.098 329.515 200.215 329.935 200.448C330.355 200.675 330.685 201.001 330.925 201.428C331.171 201.855 331.295 202.351 331.295 202.918C331.295 203.485 331.168 203.985 330.915 204.418C330.668 204.845 330.331 205.175 329.905 205.408C329.478 205.641 329.005 205.758 328.485 205.758ZM328.485 204.958C328.811 204.958 329.118 204.881 329.405 204.728C329.691 204.575 329.921 204.345 330.095 204.038C330.275 203.731 330.365 203.358 330.365 202.918C330.365 202.478 330.278 202.105 330.105 201.798C329.931 201.491 329.705 201.265 329.425 201.118C329.145 200.965 328.841 200.888 328.515 200.888C328.181 200.888 327.875 200.965 327.595 201.118C327.321 201.265 327.101 201.491 326.935 201.798C326.768 202.105 326.685 202.478 326.685 202.918C326.685 203.365 326.765 203.741 326.925 204.048C327.091 204.355 327.311 204.585 327.585 204.738C327.858 204.885 328.158 204.958 328.485 204.958ZM337.491 202.718C337.491 202.891 337.481 203.075 337.461 203.268H333.081C333.115 203.808 333.298 204.231 333.631 204.538C333.971 204.838 334.381 204.988 334.861 204.988C335.255 204.988 335.581 204.898 335.841 204.718C336.108 204.531 336.295 204.285 336.401 203.978H337.381C337.235 204.505 336.941 204.935 336.501 205.268C336.061 205.595 335.515 205.758 334.861 205.758C334.341 205.758 333.875 205.641 333.461 205.408C333.055 205.175 332.735 204.845 332.501 204.418C332.268 203.985 332.151 203.485 332.151 202.918C332.151 202.351 332.265 201.855 332.491 201.428C332.718 201.001 333.035 200.675 333.441 200.448C333.855 200.215 334.328 200.098 334.861 200.098C335.381 200.098 335.841 200.211 336.241 200.438C336.641 200.665 336.948 200.978 337.161 201.378C337.381 201.771 337.491 202.218 337.491 202.718ZM336.551 202.528C336.551 202.181 336.475 201.885 336.321 201.638C336.168 201.385 335.958 201.195 335.691 201.068C335.431 200.935 335.141 200.868 334.821 200.868C334.361 200.868 333.968 201.015 333.641 201.308C333.321 201.601 333.138 202.008 333.091 202.528H336.551ZM340.632 205.758C340.212 205.758 339.836 205.688 339.502 205.548C339.169 205.401 338.906 205.201 338.712 204.948C338.519 204.688 338.412 204.391 338.392 204.058H339.332C339.359 204.331 339.486 204.555 339.712 204.728C339.946 204.901 340.249 204.988 340.622 204.988C340.969 204.988 341.242 204.911 341.442 204.758C341.642 204.605 341.742 204.411 341.742 204.178C341.742 203.938 341.636 203.761 341.422 203.648C341.209 203.528 340.879 203.411 340.432 203.298C340.026 203.191 339.692 203.085 339.432 202.978C339.179 202.865 338.959 202.701 338.772 202.488C338.592 202.268 338.502 201.981 338.502 201.628C338.502 201.348 338.586 201.091 338.752 200.858C338.919 200.625 339.156 200.441 339.462 200.308C339.769 200.168 340.119 200.098 340.512 200.098C341.119 200.098 341.609 200.251 341.982 200.558C342.356 200.865 342.556 201.285 342.582 201.818H341.672C341.652 201.531 341.536 201.301 341.322 201.128C341.116 200.955 340.836 200.868 340.482 200.868C340.156 200.868 339.896 200.938 339.702 201.078C339.509 201.218 339.412 201.401 339.412 201.628C339.412 201.808 339.469 201.958 339.582 202.078C339.702 202.191 339.849 202.285 340.022 202.358C340.202 202.425 340.449 202.501 340.762 202.588C341.156 202.695 341.476 202.801 341.722 202.908C341.969 203.008 342.179 203.161 342.352 203.368C342.532 203.575 342.626 203.845 342.632 204.178C342.632 204.478 342.549 204.748 342.382 204.988C342.216 205.228 341.979 205.418 341.672 205.558C341.372 205.691 341.026 205.758 340.632 205.758Z" fill="#14171B"/>
<defs>
<filter id="filter0_dddddd_6412_6494" x="0" y="0" width="501" height="484.168" filterUnits="userSpaceOnUse" color-interpolation-filters="sRGB">
<feFlood flood-opacity="0" result="BackgroundImageFix"/>
<feColorMatrix in="SourceAlpha" type="matrix" values="0 0 0 0 0 0 0 0 0 0 0 0 0 0 0 0 0 0 127 0" result="hardAlpha"/>
<feOffset dy="2.76726"/>
<feGaussianBlur stdDeviation="1.1069"/>
<feColorMatrix type="matrix" values="0 0 0 0 0 0 0 0 0 0 0 0 0 0 0 0 0 0 0.07 0"/>
<feBlend mode="normal" in2="BackgroundImageFix" result="effect1_dropShadow_6412_6494"/>
<feColorMatrix in="SourceAlpha" type="matrix" values="0 0 0 0 0 0 0 0 0 0 0 0 0 0 0 0 0 0 127 0" result="hardAlpha"/>
<feOffset dy="6.6501"/>
<feGaussianBlur stdDeviation="2.66004"/>
<feColorMatrix type="matrix" values="0 0 0 0 0 0 0 0 0 0 0 0 0 0 0 0 0 0 0.0503198 0"/>
<feBlend mode="normal" in2="effect1_dropShadow_6412_6494" result="effect2_dropShadow_6412_6494"/>
<feColorMatrix in="SourceAlpha" type="matrix" values="0 0 0 0 0 0 0 0 0 0 0 0 0 0 0 0 0 0 127 0" result="hardAlpha"/>
<feOffset dy="12.5216"/>
<feGaussianBlur stdDeviation="5.00862"/>
<feColorMatrix type="matrix" values="0 0 0 0 0 0 0 0 0 0 0 0 0 0 0 0 0 0 0.0417275 0"/>
<feBlend mode="normal" in2="effect2_dropShadow_6412_6494" result="effect3_dropShadow_6412_6494"/>
<feColorMatrix in="SourceAlpha" type="matrix" values="0 0 0 0 0 0 0 0 0 0 0 0 0 0 0 0 0 0 127 0" result="hardAlpha"/>
<feOffset dy="22.3363"/>
<feGaussianBlur stdDeviation="8.93452"/>
<feColorMatrix type="matrix" values="0 0 0 0 0 0 0 0 0 0 0 0 0 0 0 0 0 0 0.035 0"/>
<feBlend mode="normal" in2="effect3_dropShadow_6412_6494" result="effect4_dropShadow_6412_6494"/>
<feColorMatrix in="SourceAlpha" type="matrix" values="0 0 0 0 0 0 0 0 0 0 0 0 0 0 0 0 0 0 127 0" result="hardAlpha"/>
<feOffset dy="41.7776"/>
<feGaussianBlur stdDeviation="16.711"/>
<feColorMatrix type="matrix" values="0 0 0 0 0 0 0 0 0 0 0 0 0 0 0 0 0 0 0.0282725 0"/>
<feBlend mode="normal" in2="effect4_dropShadow_6412_6494" result="effect5_dropShadow_6412_6494"/>
<feColorMatrix in="SourceAlpha" type="matrix" values="0 0 0 0 0 0 0 0 0 0 0 0 0 0 0 0 0 0 127 0" result="hardAlpha"/>
<feOffset dy="100"/>
<feGaussianBlur stdDeviation="40"/>
<feColorMatrix type="matrix" values="0 0 0 0 0 0 0 0 0 0 0 0 0 0 0 0 0 0 0.0196802 0"/>
<feBlend mode="normal" in2="effect5_dropShadow_6412_6494" result="effect6_dropShadow_6412_6494"/>
<feBlend mode="normal" in="SourceGraphic" in2="effect6_dropShadow_6412_6494" result="shape"/>
</filter>
<filter id="filter1_dddddd_6412_6494" x="154.425" y="13" width="197.15" height="97.7666" filterUnits="userSpaceOnUse" color-interpolation-filters="sRGB">
<feFlood flood-opacity="0" result="BackgroundImageFix"/>
<feColorMatrix in="SourceAlpha" type="matrix" values="0 0 0 0 0 0 0 0 0 0 0 0 0 0 0 0 0 0 127 0" result="hardAlpha"/>
<feOffset dy="1.12679"/>
<feGaussianBlur stdDeviation="0.450715"/>
<feColorMatrix type="matrix" values="0 0 0 0 0 0 0 0 0 0 0 0 0 0 0 0 0 0 0.07 0"/>
<feBlend mode="normal" in2="BackgroundImageFix" result="effect1_dropShadow_6412_6494"/>
<feColorMatrix in="SourceAlpha" type="matrix" values="0 0 0 0 0 0 0 0 0 0 0 0 0 0 0 0 0 0 127 0" result="hardAlpha"/>
<feOffset dy="2.70783"/>
<feGaussianBlur stdDeviation="1.08313"/>
<feColorMatrix type="matrix" values="0 0 0 0 0 0 0 0 0 0 0 0 0 0 0 0 0 0 0.0503198 0"/>
<feBlend mode="normal" in2="effect1_dropShadow_6412_6494" result="effect2_dropShadow_6412_6494"/>
<feColorMatrix in="SourceAlpha" type="matrix" values="0 0 0 0 0 0 0 0 0 0 0 0 0 0 0 0 0 0 127 0" result="hardAlpha"/>
<feOffset dy="5.0986"/>
<feGaussianBlur stdDeviation="2.03944"/>
<feColorMatrix type="matrix" values="0 0 0 0 0 0 0 0 0 0 0 0 0 0 0 0 0 0 0.0417275 0"/>
<feBlend mode="normal" in2="effect2_dropShadow_6412_6494" result="effect3_dropShadow_6412_6494"/>
<feColorMatrix in="SourceAlpha" type="matrix" values="0 0 0 0 0 0 0 0 0 0 0 0 0 0 0 0 0 0 127 0" result="hardAlpha"/>
<feOffset dy="9.09502"/>
<feGaussianBlur stdDeviation="3.63801"/>
<feColorMatrix type="matrix" values="0 0 0 0 0 0 0 0 0 0 0 0 0 0 0 0 0 0 0.035 0"/>
<feBlend mode="normal" in2="effect3_dropShadow_6412_6494" result="effect4_dropShadow_6412_6494"/>
<feColorMatrix in="SourceAlpha" type="matrix" values="0 0 0 0 0 0 0 0 0 0 0 0 0 0 0 0 0 0 127 0" result="hardAlpha"/>
<feOffset dy="17.0112"/>
<feGaussianBlur stdDeviation="6.8045"/>
<feColorMatrix type="matrix" values="0 0 0 0 0 0 0 0 0 0 0 0 0 0 0 0 0 0 0.0282725 0"/>
<feBlend mode="normal" in2="effect4_dropShadow_6412_6494" result="effect5_dropShadow_6412_6494"/>
<feColorMatrix in="SourceAlpha" type="matrix" values="0 0 0 0 0 0 0 0 0 0 0 0 0 0 0 0 0 0 127 0" result="hardAlpha"/>
<feOffset dy="40.7186"/>
<feGaussianBlur stdDeviation="16.2874"/>
<feColorMatrix type="matrix" values="0 0 0 0 0 0 0 0 0 0 0 0 0 0 0 0 0 0 0.0196802 0"/>
<feBlend mode="normal" in2="effect5_dropShadow_6412_6494" result="effect6_dropShadow_6412_6494"/>
<feBlend mode="normal" in="SourceGraphic" in2="effect6_dropShadow_6412_6494" result="shape"/>
</filter>
<filter id="filter2_d_6412_6494" x="83.6649" y="253.114" width="327.784" height="46.2874" filterUnits="userSpaceOnUse" color-interpolation-filters="sRGB">
<feFlood flood-opacity="0" result="BackgroundImageFix"/>
<feColorMatrix in="SourceAlpha" type="matrix" values="0 0 0 0 0 0 0 0 0 0 0 0 0 0 0 0 0 0 127 0" result="hardAlpha"/>
<feMorphology radius="1.62874" operator="erode" in="SourceAlpha" result="effect1_dropShadow_6412_6494"/>
<feOffset dy="3.25748"/>
<feGaussianBlur stdDeviation="4.88623"/>
<feComposite in2="hardAlpha" operator="out"/>
<feColorMatrix type="matrix" values="0 0 0 0 0 0 0 0 0 0 0 0 0 0 0 0 0 0 0.08 0"/>
<feBlend mode="normal" in2="BackgroundImageFix" result="effect1_dropShadow_6412_6494"/>
<feBlend mode="normal" in="SourceGraphic" in2="effect1_dropShadow_6412_6494" result="shape"/>
</filter>
<filter id="filter3_d_6412_6494" x="372.252" y="261.599" width="26.0599" height="26.0599" filterUnits="userSpaceOnUse" color-interpolation-filters="sRGB">
<feFlood flood-opacity="0" result="BackgroundImageFix"/>
<feColorMatrix in="SourceAlpha" type="matrix" values="0 0 0 0 0 0 0 0 0 0 0 0 0 0 0 0 0 0 127 0" result="hardAlpha"/>
<feOffset dy="1.62874"/>
<feGaussianBlur stdDeviation="1.62874"/>
<feComposite in2="hardAlpha" operator="out"/>
<feColorMatrix type="matrix" values="0 0 0 0 0.337255 0 0 0 0 0.380392 0 0 0 0 0.964706 0 0 0 0.25 0"/>
<feBlend mode="normal" in2="BackgroundImageFix" result="effect1_dropShadow_6412_6494"/>
<feBlend mode="normal" in="SourceGraphic" in2="effect1_dropShadow_6412_6494" result="shape"/>
</filter>
</defs>
</svg>
