<svg width="301" height="273" viewBox="0 0 301 273" fill="none" xmlns="http://www.w3.org/2000/svg">
<g filter="url(#filter0_i_6407_208)">
<rect width="130.384" height="63.8264" rx="13.6921" transform="matrix(0.999992 0.00412006 -0.00554003 0.999985 84.7644 46.0459)" fill="url(#paint0_linear_6407_208)" fill-opacity="0.93"/>
</g>
<path d="M138.909 80.7142C139.168 81.2005 139.453 81.6259 139.765 81.9903C140.088 82.3549 140.444 82.6403 140.834 82.8464C141.223 83.0525 141.645 83.1608 142.1 83.1714C142.63 83.1837 143.064 83.0583 143.403 82.7952C143.742 82.5322 143.917 82.1668 143.928 81.699C143.938 81.2928 143.842 80.9642 143.639 80.7132C143.448 80.4624 143.151 80.24 142.75 80.046C142.361 79.8399 141.88 79.6193 141.307 79.3843C141.002 79.2664 140.648 79.1104 140.247 78.9164C139.858 78.7103 139.488 78.4554 139.138 78.1517C138.789 77.8357 138.503 77.4595 138.279 77.0233C138.056 76.5747 137.953 76.0427 137.968 75.4273C137.986 74.6888 138.186 74.0592 138.568 73.5385C138.963 73.0058 139.484 72.6053 140.131 72.337C140.791 72.0568 141.521 71.926 142.321 71.9445C143.146 71.9637 143.85 72.1217 144.434 72.4185C145.03 72.7033 145.52 73.0657 145.903 73.5057C146.299 73.9336 146.603 74.3778 146.813 74.8384L144.717 75.9351C144.552 75.6234 144.35 75.3416 144.109 75.0897C143.882 74.8257 143.616 74.6164 143.312 74.4615C143.008 74.2943 142.659 74.2062 142.266 74.197C141.749 74.185 141.358 74.2991 141.093 74.5393C140.829 74.7671 140.693 75.0411 140.685 75.3611C140.677 75.6811 140.775 75.9667 140.978 76.2177C141.182 76.4564 141.496 76.6916 141.921 76.9231C142.347 77.1424 142.883 77.3704 143.53 77.6071C143.945 77.7645 144.341 77.9585 144.717 78.1889C145.105 78.4196 145.449 78.6985 145.749 79.0257C146.062 79.3409 146.299 79.7158 146.461 80.1506C146.635 80.5734 146.715 81.0618 146.702 81.6157C146.686 82.2434 146.549 82.8006 146.291 83.2872C146.033 83.7739 145.684 84.1845 145.245 84.5191C144.806 84.8415 144.313 85.0825 143.767 85.2422C143.234 85.4146 142.671 85.4939 142.08 85.4802C141.293 85.4619 140.558 85.297 139.876 84.9856C139.206 84.6621 138.626 84.2361 138.134 83.7074C137.642 83.1787 137.261 82.6095 136.993 81.9998L138.909 80.7142ZM149.773 79.618L149.831 77.2362L159.322 77.4567L159.263 79.8384L149.773 79.618ZM157.761 72.5618L160.401 72.6232L160.084 85.5473L157.443 85.486L157.761 72.5618ZM149.083 72.3602L151.723 72.4216L151.406 85.3458L148.765 85.2844L149.083 72.3602ZM164.729 82.7179L165.094 80.6389L171.298 80.783L171.56 82.8766L164.729 82.7179ZM168.25 76.999L166.202 81.4036L166.243 81.9957L164.453 85.6489L161.481 85.5798L168.372 72.0509L174.59 85.8843L171.599 85.8148L170.025 82.1944L170.078 81.5306L168.25 76.999ZM179.076 79.9661L181.864 80.0309L185.926 86.1476L182.805 86.0751L179.076 79.9661ZM176.31 72.9927L178.95 73.054L178.632 85.9782L175.992 85.9169L176.31 72.9927ZM177.861 75.2825L177.916 73.03L180.649 73.0935C181.671 73.1172 182.534 73.3097 183.24 73.6709C183.945 74.0322 184.481 74.5249 184.847 75.1492C185.214 75.7735 185.387 76.498 185.367 77.3227C185.347 78.1351 185.138 78.8507 184.741 79.4696C184.344 80.0762 183.785 80.5435 183.062 80.8715C182.34 81.1996 181.468 81.3518 180.446 81.328L177.714 81.2646L177.765 79.1598L180.332 79.2194C180.8 79.2302 181.202 79.1657 181.538 79.0257C181.886 78.8737 182.156 78.6583 182.348 78.3795C182.54 78.0884 182.641 77.7397 182.651 77.3335C182.661 76.9273 182.577 76.5805 182.399 76.2931C182.222 75.9934 181.963 75.7657 181.622 75.61C181.293 75.4423 180.895 75.353 180.427 75.3421L177.861 75.2825ZM189.14 86.2223L189.195 83.9883L195.713 84.1397L195.658 86.3737L189.14 86.2223ZM189.403 75.5322L189.458 73.2981L195.976 73.4495L195.921 75.6836L189.403 75.5322ZM189.282 80.4618L189.336 78.2647L195.485 78.4075L195.43 80.6046L189.282 80.4618ZM187.76 73.2587L190.308 73.3178L189.99 86.242L187.442 86.1828L187.76 73.2587Z" fill="#303030"/>
<ellipse cx="112.599" cy="78.4271" rx="17.6906" ry="17.7275" transform="rotate(21.7327 112.599 78.4271)" fill="#D73B6B" fill-opacity="0.2"/>
<g filter="url(#filter1_d_6407_208)">
<ellipse cx="112.6" cy="78.4274" rx="9.18119" ry="9.20036" transform="rotate(21.7327 112.6 78.4274)" fill="#D73B6B"/>
<path d="M120.884 81.7293C119.056 86.3145 113.866 88.5522 109.291 86.7288C104.717 84.9054 102.489 79.7107 104.317 75.1255C106.144 70.5404 111.335 68.3027 115.909 70.1261C120.484 71.9495 122.711 77.1442 120.884 81.7293Z" stroke="#CAD9FF" stroke-width="0.527677"/>
</g>
<path d="M29.3874 123L27.8963 270.766M164.811 124.251L163.32 272.017M98.1408 123.635L96.6497 271.401M232.87 124.879L231.379 272.646M62.7221 123.308L61.231 271.074M198.841 124.565L197.35 272.331M131.475 123.943L129.984 271.709M266.9 125.194L265.408 272.96M0.0414889 244.34L299.362 247.105M0.679091 181.139L299.999 183.903M0.354997 213.185L299.675 215.949M1.00186 149.093L300.322 151.858" stroke="#E4B5A8" stroke-width="0.411357"/>
<defs>
<filter id="filter0_i_6407_208" x="84.4865" y="46.1023" width="130.585" height="64.25" filterUnits="userSpaceOnUse" color-interpolation-filters="sRGB">
<feFlood flood-opacity="0" result="BackgroundImageFix"/>
<feBlend mode="normal" in="SourceGraphic" in2="BackgroundImageFix" result="shape"/>
<feColorMatrix in="SourceAlpha" type="matrix" values="0 0 0 0 0 0 0 0 0 0 0 0 0 0 0 0 0 0 127 0" result="hardAlpha"/>
<feOffset dx="-1.02691" dy="1.02691"/>
<feComposite in2="hardAlpha" operator="arithmetic" k2="-1" k3="1"/>
<feColorMatrix type="matrix" values="0 0 0 0 1 0 0 0 0 1 0 0 0 0 1 0 0 0 1 0"/>
<feBlend mode="normal" in2="shape" result="effect1_innerShadow_6407_208"/>
</filter>
<filter id="filter1_d_6407_208" x="101.831" y="69.2273" width="24.7047" height="25.2602" filterUnits="userSpaceOnUse" color-interpolation-filters="sRGB">
<feFlood flood-opacity="0" result="BackgroundImageFix"/>
<feColorMatrix in="SourceAlpha" type="matrix" values="0 0 0 0 0 0 0 0 0 0 0 0 0 0 0 0 0 0 127 0" result="hardAlpha"/>
<feOffset dx="1.58303" dy="3.69374"/>
<feGaussianBlur stdDeviation="1.58303"/>
<feComposite in2="hardAlpha" operator="out"/>
<feColorMatrix type="matrix" values="0 0 0 0 0.0117647 0 0 0 0 0.278431 0 0 0 0 0.215686 0 0 0 0.31 0"/>
<feBlend mode="normal" in2="BackgroundImageFix" result="effect1_dropShadow_6407_208"/>
<feBlend mode="normal" in="SourceGraphic" in2="effect1_dropShadow_6407_208" result="shape"/>
</filter>
<linearGradient id="paint0_linear_6407_208" x1="118.88" y1="23.2751" x2="10.2306" y2="-1.95031" gradientUnits="userSpaceOnUse">
<stop stop-color="#F4F4F4"/>
<stop offset="0.421875" stop-color="#F4F4F4"/>
<stop offset="1" stop-color="white"/>
</linearGradient>
</defs>
</svg>
